<?xml version="1.0" encoding="utf-8"?>
<!-- Generator: Adobe Illustrator 25.4.1, SVG Export Plug-In . SVG Version: 6.00 Build 0)  -->
<svg version="1.1" id="Layer_1" xmlns="http://www.w3.org/2000/svg" xmlns:xlink="http://www.w3.org/1999/xlink" x="0px" y="0px"
	 viewBox="0 0 484.83 479.52" style="enable-background:new 0 0 484.83 479.52;" xml:space="preserve">
<style type="text/css">
	.st0{fill:#FFFCF0;}
	.st1{opacity:0.08;}
	.st2{clip-path:url(#SVGID_00000034090165545216668910000013524896981524897720_);}
	.st3{opacity:0.89;}
	.st4{fill:#353535;}
	.st5{clip-path:url(#SVGID_00000010268576008720240480000010245324867604786575_);}
	.st6{clip-path:url(#SVGID_00000101798243803263168950000007607626020222725530_);}
	.st7{clip-path:url(#SVGID_00000068672687487739185330000008835143504192672389_);}
	.st8{clip-path:url(#SVGID_00000022523018630395055240000009055698735097044663_);}
	.st9{clip-path:url(#SVGID_00000075152217329819312190000017841259216715088288_);}
	.st10{clip-path:url(#SVGID_00000094617794266903157190000013003929609268289169_);}
	.st11{clip-path:url(#SVGID_00000083797497728380835900000007668333405897944982_);}
	.st12{clip-path:url(#SVGID_00000155143565288311966800000014683558997924093315_);}
	.st13{clip-path:url(#SVGID_00000090278889738794687180000006654123724142828975_);}
	.st14{clip-path:url(#SVGID_00000163066760644654833860000005764993406328872851_);}
	.st15{clip-path:url(#SVGID_00000141416731330966764160000015707245838812045226_);}
	.st16{clip-path:url(#SVGID_00000101087731759000337530000007888311891733744061_);}
	.st17{clip-path:url(#SVGID_00000005957889885537151020000011904835408004071613_);}
	.st18{fill:#ECE7D0;}
	.st19{opacity:0.83;}
	.st20{fill:#FFFFFF;}
	.st21{clip-path:url(#SVGID_00000035515998752266320290000008619396956446138517_);}
	.st22{fill:url(#SVGID_00000026881104184110193170000005365678746507917497_);}
	.st23{fill:url(#SVGID_00000104698011448979677800000008790172703114096012_);}
	.st24{fill:url(#SVGID_00000008127630450624121100000006749717467664125312_);}
	.st25{fill:url(#SVGID_00000131335670164107628810000013275048856215155079_);}
	.st26{fill:url(#SVGID_00000044147240358863626930000018141162423775968910_);}
	.st27{fill:url(#SVGID_00000082358886313524364330000006751047615757563804_);}
	.st28{fill:url(#SVGID_00000067953607924596865610000012809555868279662261_);}
	.st29{fill:url(#SVGID_00000062152303859400556450000009427156710991138738_);}
	.st30{fill:url(#SVGID_00000165209155521605371760000012830637015481650318_);}
	.st31{fill:url(#SVGID_00000160872209306726673840000003449278600956232602_);}
	.st32{fill:url(#SVGID_00000138562266558034383870000002341768828250214318_);}
	.st33{fill:url(#SVGID_00000137103873842752607520000011045043202145074817_);}
	.st34{fill:url(#SVGID_00000174601134899813788460000009424163051155326637_);}
	.st35{fill:url(#SVGID_00000070078814328186416480000005533358044690198204_);}
	.st36{fill:url(#SVGID_00000089568709684319391110000000276434256220704149_);}
	.st37{fill:#54995D;}
	.st38{fill:none;stroke:#29ADB2;stroke-miterlimit:10;}
	.st39{fill:#0F392E;}
	.st40{clip-path:url(#SVGID_00000071540784888945031840000004131054819777726899_);}
	.st41{opacity:0.4;}
	.st42{fill:#253B80;stroke:#FFFFFF;stroke-width:0.1048;stroke-miterlimit:123.7911;stroke-opacity:0;}
	.st43{fill:#57C3BC;}
	.st44{fill-rule:evenodd;clip-rule:evenodd;fill:#57C3BC;}
	.st45{fill:#5D695F;}
	.st46{fill:#576B5B;}
	.st47{fill:#606960;}
	.st48{fill:#576C5B;}
	.st49{fill:#557258;}
	.st50{fill:#6B866B;}
	.st51{fill:#5D7B60;}
	.st52{fill:#797F76;}
	.st53{fill:#516E55;}
	.st54{fill:#6C988C;}
	.st55{fill:#567258;}
	.st56{fill:#728673;}
	.st57{fill:#7F927F;}
	.st58{fill:#718672;}
	.st59{fill:#6B856B;}
	.st60{fill:#797F77;}
	.st61{fill:#647362;}
	.st62{fill:#627260;}
	.st63{fill:#6E8270;}
	.st64{fill:#61725F;}
	.st65{fill:#5B6B5A;}
	.st66{fill:#6A7167;}
	.st67{fill:#596A58;}
	.st68{fill:#698569;}
	.st69{fill:#576856;}
	.st70{fill:#5A6A59;}
	.st71{fill:#5B6E59;}
	.st72{fill:#5F6F5E;}
	.st73{fill:#5B6C5B;}
	.st74{fill:#60735F;}
	.st75{fill:#586059;}
	.st76{fill:#5E675F;}
	.st77{fill:#5E6F5E;}
	.st78{fill:#5F715F;}
	.st79{fill:#627561;}
	.st80{fill:#697966;}
	.st81{fill:#687868;}
	.st82{fill:#5E6E61;}
	.st83{fill:#60715F;}
	.st84{fill:#61745F;}
	.st85{fill:#617261;}
	.st86{fill:#55635A;}
	.st87{fill:#5F7664;}
	.st88{fill:#628778;}
	.st89{fill:#56675C;}
	.st90{fill:#607464;}
	.st91{fill:#5E6F60;}
	.st92{fill:#617D63;}
	.st93{fill:#627361;}
	.st94{fill:#5F735F;}
	.st95{fill:#60705E;}
	.st96{fill:#607261;}
	.st97{fill:#687166;}
	.st98{fill:#576B58;}
	.st99{fill:#596258;}
	.st100{fill:#657663;}
	.st101{fill:#607D62;}
	.st102{fill:#607562;}
	.st103{fill:#798E79;}
	.st104{fill:#788C78;}
	.st105{fill:#56665E;}
	.st106{fill:#55675D;}
	.st107{fill:#627763;}
	.st108{fill:#618576;}
	.st109{fill:#637665;}
	.st110{fill:#648B7C;}
	.st111{fill:#647563;}
	.st112{fill:#64897B;}
	.st113{fill:#576B5A;}
	.st114{fill:#596B5B;}
	.st115{fill:#636B63;}
	.st116{fill:#647665;}
	.st117{fill:#627463;}
	.st118{fill:#59685F;}
	.st119{fill:#8B9D89;}
	.st120{fill:#597165;}
	.st121{fill:#5C7066;}
	.st122{fill:#6B7067;}
	.st123{fill:#6A736A;}
	.st124{fill:#638065;}
	.st125{fill:#545F58;}
	.st126{fill:#5D715E;}
	.st127{fill:#667867;}
	.st128{fill:#628065;}
	.st129{fill:#5C7065;}
	.st130{fill:#576B59;}
	.st131{fill:#5C705D;}
	.st132{fill:#668F80;}
	.st133{fill:#596D5B;}
	.st134{fill:#5A6E5C;}
	.st135{fill:#5A6E5B;}
	.st136{fill:#5C715C;}
	.st137{fill:#5A6F5C;}
	.st138{fill:#627664;}
	.st139{fill:#607560;}
	.st140{fill:#5D6F64;}
	.st141{fill:#5F745F;}
	.st142{fill:#7D907D;}
	.st143{fill:#768977;}
	.st144{fill:#7B8E7B;}
	.st145{fill:#7C907C;}
	.st146{fill:#718271;}
	.st147{fill:#688F83;}
	.st148{fill:#658A7C;}
	.st149{fill:#638779;}
	.st150{fill:#638A7A;}
	.st151{fill:#5E8271;}
	.st152{fill:#6D826D;}
	.st153{fill:#586758;}
	.st154{fill:#618777;}
	.st155{fill:#5F8474;}
	.st156{fill:#778B76;}
	.st157{fill:#60776B;}
	.st158{fill:#656D64;}
	.st159{fill:#667C71;}
	.st160{fill:#708571;}
	.st161{fill:#666D64;}
	.st162{fill:#576A5A;}
	.st163{fill:#798B79;}
	.st164{fill:#748873;}
	.st165{fill:#5E745F;}
	.st166{fill:#6A7C6A;}
	.st167{fill:#6A7D71;}
	.st168{fill:#67786B;}
	.st169{fill:#69736A;}
	.st170{fill:#66786B;}
	.st171{fill:#627761;}
	.st172{fill:#67726A;}
	.st173{fill:#62766B;}
	.st174{fill:#6A7D6B;}
	.st175{fill:#546858;}
	.st176{fill:#5A6959;}
	.st177{fill:#6C7F68;}
	.st178{fill:#6C7E71;}
	.st179{fill:#617761;}
	.st180{fill:#697D6C;}
	.st181{fill:#5C7063;}
	.st182{fill:#687D6C;}
	.st183{fill:#7A8F7A;}
	.st184{fill:#737D7B;}
	.st185{fill:#748877;}
	.st186{fill:#699286;}
	.st187{fill:#7A8977;}
	.st188{fill:#7B8977;}
	.st189{fill:#84927F;}
	.st190{fill:#81927F;}
	.st191{fill:#728777;}
	.st192{fill:#668C7E;}
	.st193{fill:#6C857B;}
	.st194{fill:#7F8F74;}
	.st195{fill:#7B8E75;}
	.st196{fill:#7A8D75;}
	.st197{fill:#727673;}
	.st198{fill:#6E8D7F;}
	.st199{fill:#758C75;}
	.st200{fill:#778D75;}
	.st201{fill:#727D76;}
	.st202{fill:#7D937B;}
	.st203{fill:#768D75;}
	.st204{fill:#879985;}
	.st205{fill:#788C79;}
	.st206{fill:#628D7B;}
	.st207{fill:#798977;}
	.st208{fill:#7A7F7A;}
	.st209{fill:#668167;}
	.st210{fill:#689084;}
	.st211{fill:#727970;}
	.st212{fill:#5F6F5D;}
	.st213{fill:#637661;}
	.st214{fill:#5C715D;}
	.st215{fill:#61756C;}
	.st216{fill:#7A8E79;}
	.st217{fill:#687C6B;}
	.st218{fill:#7C8A77;}
	.st219{fill:#5D6E5C;}
	.st220{fill:#678E81;}
	.st221{fill:#6C736A;}
	.st222{fill:#5E7A60;}
	.st223{fill:#5E705E;}
	.st224{fill:#5C6C5B;}
	.st225{fill:#647664;}
	.st226{fill:#657562;}
	.st227{fill:#596E5A;}
	.st228{fill:#5A6F5A;}
	.st229{fill:#606B63;}
	.st230{fill:#546256;}
	.st231{fill:#566655;}
	.st232{fill:#63796E;}
	.st233{fill:#70746A;}
	.st234{fill:#668E80;}
	.st235{fill:#648065;}
	.st236{fill:#5B6E5B;}
	.st237{fill:#5F7761;}
	.st238{fill:#627360;}
	.st239{fill:#657762;}
	.st240{fill:#617260;}
	.st241{fill:#5A6F63;}
	.st242{fill:#697067;}
	.st243{fill:#5D705D;}
	.st244{fill:#60755F;}
	.st245{fill:#627164;}
	.st246{fill:#839682;}
	.st247{fill:#707870;}
	.st248{fill:#80927E;}
	.st249{fill:#678E82;}
	.st250{fill:#5A6D5A;}
	.st251{fill:#5C6D5A;}
	.st252{fill:#637360;}
	.st253{fill:#767E76;}
	.st254{fill:#758975;}
	.st255{fill:#6C7D6B;}
	.st256{fill:#6A7E6C;}
	.st257{fill:#6F7870;}
	.st258{fill:#74877B;}
	.st259{fill:none;stroke:#000000;stroke-miterlimit:10;}
	
		.st260{clip-path:url(#SVGID_00000155862804573794409550000014330387094509856695_);fill:url(#SVGID_00000073709008755824969700000017496281819297976963_);}
	.st261{opacity:0.44;clip-path:url(#SVGID_00000155862804573794409550000014330387094509856695_);}
	.st262{fill:#63C6C4;}
	.st263{fill:#29ADB2;}
	.st264{fill:#73CBCD;}
	
		.st265{clip-path:url(#SVGID_00000155862804573794409550000014330387094509856695_);fill:url(#SVGID_00000146497929326999796960000018266340012264407449_);}
	.st266{clip-path:url(#SVGID_00000155862804573794409550000014330387094509856695_);}
	.st267{fill:#477A3E;}
	
		.st268{clip-path:url(#SVGID_00000039133430898240172860000015976149026588170636_);fill:url(#SVGID_00000016781098705417341370000007175731375348839320_);}
	.st269{opacity:0.44;clip-path:url(#SVGID_00000039133430898240172860000015976149026588170636_);}
	
		.st270{clip-path:url(#SVGID_00000039133430898240172860000015976149026588170636_);fill:url(#SVGID_00000094607553504273000400000005749133422576808847_);}
	.st271{clip-path:url(#SVGID_00000039133430898240172860000015976149026588170636_);}
	
		.st272{clip-path:url(#SVGID_00000124878898243131510930000010984640012124662173_);fill:url(#SVGID_00000124882270980953322900000016989748402735056062_);}
	.st273{opacity:0.44;clip-path:url(#SVGID_00000124878898243131510930000010984640012124662173_);}
	
		.st274{clip-path:url(#SVGID_00000124878898243131510930000010984640012124662173_);fill:url(#SVGID_00000082341077578023356960000004184072370826642567_);}
	.st275{clip-path:url(#SVGID_00000124878898243131510930000010984640012124662173_);}
	
		.st276{clip-path:url(#SVGID_00000176027229225880588410000001552463190769803403_);fill:url(#SVGID_00000122721720170757974100000011329670733902292383_);}
	.st277{opacity:0.44;clip-path:url(#SVGID_00000176027229225880588410000001552463190769803403_);}
	
		.st278{clip-path:url(#SVGID_00000176027229225880588410000001552463190769803403_);fill:url(#SVGID_00000109727671169236742360000013662391273055669141_);}
	.st279{clip-path:url(#SVGID_00000176027229225880588410000001552463190769803403_);}
	
		.st280{clip-path:url(#SVGID_00000181789513508717113630000009263376210529035648_);fill:url(#SVGID_00000159454273212811869080000018044501711249834929_);}
	.st281{opacity:0.44;clip-path:url(#SVGID_00000181789513508717113630000009263376210529035648_);}
	
		.st282{clip-path:url(#SVGID_00000181789513508717113630000009263376210529035648_);fill:url(#SVGID_00000003810728969178746180000001510864517440737205_);}
	.st283{clip-path:url(#SVGID_00000181789513508717113630000009263376210529035648_);}
	
		.st284{clip-path:url(#SVGID_00000129886845161604258590000010653803833466523021_);fill:url(#SVGID_00000165946360757407398040000007753043697150961564_);}
	.st285{opacity:0.44;clip-path:url(#SVGID_00000129886845161604258590000010653803833466523021_);}
	
		.st286{clip-path:url(#SVGID_00000129886845161604258590000010653803833466523021_);fill:url(#SVGID_00000163773482707628121210000007839559610852170161_);}
	.st287{clip-path:url(#SVGID_00000129886845161604258590000010653803833466523021_);}
	
		.st288{clip-path:url(#SVGID_00000154406428374486686600000002966104544126023566_);fill:url(#SVGID_00000181803151057336730770000016384775462857299373_);}
	.st289{opacity:0.44;clip-path:url(#SVGID_00000154406428374486686600000002966104544126023566_);}
	
		.st290{clip-path:url(#SVGID_00000154406428374486686600000002966104544126023566_);fill:url(#SVGID_00000163782777487746677280000002441705771772983982_);}
	.st291{clip-path:url(#SVGID_00000154406428374486686600000002966104544126023566_);}
	
		.st292{clip-path:url(#SVGID_00000059991694321574935410000013520374624268526239_);fill:url(#SVGID_00000079460266447033721500000007104655123296673685_);}
	.st293{opacity:0.44;clip-path:url(#SVGID_00000059991694321574935410000013520374624268526239_);}
	
		.st294{clip-path:url(#SVGID_00000059991694321574935410000013520374624268526239_);fill:url(#SVGID_00000111901723954313410430000016748840924723055796_);}
	.st295{clip-path:url(#SVGID_00000059991694321574935410000013520374624268526239_);}
	
		.st296{clip-path:url(#SVGID_00000093863820206060929990000001453568841603217556_);fill:url(#SVGID_00000128472289562447758480000015803866890133342393_);}
	.st297{opacity:0.44;clip-path:url(#SVGID_00000093863820206060929990000001453568841603217556_);}
	
		.st298{clip-path:url(#SVGID_00000093863820206060929990000001453568841603217556_);fill:url(#SVGID_00000020390080190409316110000007019636923246137478_);}
	.st299{clip-path:url(#SVGID_00000093863820206060929990000001453568841603217556_);}
	
		.st300{clip-path:url(#SVGID_00000092418316037412428350000007440833674498345628_);fill:url(#SVGID_00000166636933134610974770000012898151030899755186_);}
	.st301{opacity:0.44;clip-path:url(#SVGID_00000092418316037412428350000007440833674498345628_);}
	
		.st302{clip-path:url(#SVGID_00000092418316037412428350000007440833674498345628_);fill:url(#SVGID_00000160901057669804137980000001031492433268173705_);}
	.st303{clip-path:url(#SVGID_00000092418316037412428350000007440833674498345628_);}
	
		.st304{clip-path:url(#SVGID_00000062176130140284937650000016807315706977523391_);fill:url(#SVGID_00000098934702507194282100000017264334707792688306_);}
	.st305{opacity:0.44;clip-path:url(#SVGID_00000062176130140284937650000016807315706977523391_);}
	
		.st306{clip-path:url(#SVGID_00000062176130140284937650000016807315706977523391_);fill:url(#SVGID_00000055701617291697710870000017426756977307420085_);}
	.st307{clip-path:url(#SVGID_00000062176130140284937650000016807315706977523391_);}
	
		.st308{clip-path:url(#SVGID_00000070118220784207041280000008643776426927432852_);fill:url(#SVGID_00000010300522875361349140000005036609585166451620_);}
	.st309{opacity:0.44;clip-path:url(#SVGID_00000070118220784207041280000008643776426927432852_);}
	
		.st310{clip-path:url(#SVGID_00000070118220784207041280000008643776426927432852_);fill:url(#SVGID_00000128442825859555401950000013382781332653887138_);}
	.st311{clip-path:url(#SVGID_00000070118220784207041280000008643776426927432852_);}
	
		.st312{clip-path:url(#SVGID_00000163795664216982829010000007906511846817835959_);fill:url(#SVGID_00000097458567575443437800000016409871507095810202_);}
	.st313{opacity:0.44;clip-path:url(#SVGID_00000163795664216982829010000007906511846817835959_);}
	
		.st314{clip-path:url(#SVGID_00000163795664216982829010000007906511846817835959_);fill:url(#SVGID_00000055682452343872708910000008559744722055094146_);}
	.st315{clip-path:url(#SVGID_00000163795664216982829010000007906511846817835959_);}
	
		.st316{clip-path:url(#SVGID_00000124153948194871195320000005368624127794780556_);fill:url(#SVGID_00000051347637723430480500000013463722642841762437_);}
	.st317{opacity:0.44;clip-path:url(#SVGID_00000124153948194871195320000005368624127794780556_);}
	
		.st318{clip-path:url(#SVGID_00000124153948194871195320000005368624127794780556_);fill:url(#SVGID_00000062185853638525559950000002497439561424881052_);}
	.st319{clip-path:url(#SVGID_00000124153948194871195320000005368624127794780556_);}
	
		.st320{clip-path:url(#SVGID_00000165201051532810058600000000372744928568600993_);fill:url(#SVGID_00000129188062283203631290000007211517336609641102_);}
	.st321{opacity:0.44;clip-path:url(#SVGID_00000165201051532810058600000000372744928568600993_);}
	
		.st322{clip-path:url(#SVGID_00000165201051532810058600000000372744928568600993_);fill:url(#SVGID_00000026133521250179348910000013004212971277153960_);}
	.st323{clip-path:url(#SVGID_00000165201051532810058600000000372744928568600993_);}
	
		.st324{clip-path:url(#SVGID_00000047032794001671723320000006292654765729745305_);fill:url(#SVGID_00000055677817461823073860000010512892276077993884_);}
	.st325{opacity:0.44;clip-path:url(#SVGID_00000047032794001671723320000006292654765729745305_);}
	
		.st326{clip-path:url(#SVGID_00000047032794001671723320000006292654765729745305_);fill:url(#SVGID_00000123421496190635936210000015973286945459232437_);}
	.st327{clip-path:url(#SVGID_00000047032794001671723320000006292654765729745305_);}
</style>
<g>
	<g>
		<path class="st39" d="M51.01,252.37c-1.01,2.05-2.46,3.68-4.33,4.89c-1.88,1.21-4.03,1.87-6.44,1.97
			c-2.42,0.1-4.61-0.39-6.58-1.47c-1.97-1.07-3.54-2.59-4.71-4.55c-1.17-1.96-1.8-4.19-1.9-6.67c-0.08-2.02,0.2-3.87,0.84-5.57
			c0.64-1.69,1.6-3.14,2.89-4.34l2.9,2.85c-1.85,1.86-2.73,4.09-2.62,6.69c0.07,1.69,0.5,3.19,1.29,4.5
			c0.79,1.31,1.86,2.31,3.2,3.01c1.34,0.7,2.85,1.01,4.51,0.95c1.67-0.07,3.14-0.5,4.42-1.3c1.28-0.8,2.27-1.89,2.95-3.25
			c0.69-1.37,1-2.89,0.93-4.58c-0.1-2.6-1.16-4.76-3.18-6.46l2.7-3.07c1.38,1.1,2.46,2.47,3.23,4.12c0.77,1.65,1.2,3.48,1.28,5.5
			C52.48,248.06,52.02,250.32,51.01,252.37z"/>
		<path class="st39" d="M53.4,207.48c-1.46,1.77-3.25,3.04-5.37,3.79c-2.12,0.76-4.36,0.9-6.71,0.45c-2.35-0.46-4.36-1.44-6.04-2.94
			c-1.68-1.5-2.86-3.35-3.54-5.54c-0.68-2.19-0.78-4.52-0.3-6.98c0.48-2.47,1.45-4.58,2.91-6.35c1.46-1.77,3.24-3.04,5.35-3.8
			c2.11-0.76,4.35-0.91,6.72-0.44c2.37,0.46,4.39,1.45,6.06,2.95c1.67,1.5,2.84,3.34,3.53,5.53c0.68,2.19,0.78,4.52,0.3,6.99
			C55.83,203.59,54.86,205.71,53.4,207.48z M52.14,195.78c-0.47-1.43-1.29-2.64-2.45-3.64c-1.16-0.99-2.54-1.65-4.15-1.96
			c-1.61-0.32-3.14-0.23-4.59,0.25c-1.45,0.48-2.66,1.3-3.64,2.45c-0.98,1.15-1.63,2.53-1.94,4.14c-0.32,1.61-0.24,3.14,0.24,4.57
			c0.47,1.43,1.29,2.64,2.45,3.64c1.16,0.99,2.54,1.65,4.16,1.96c1.61,0.32,3.14,0.23,4.59-0.25c1.45-0.48,2.66-1.3,3.64-2.45
			c0.98-1.15,1.63-2.53,1.94-4.14C52.69,198.74,52.62,197.22,52.14,195.78z"/>
		<path class="st39" d="M44.82,154.44l1.95-4.14l18.79,8.86l5.49-11.66l3.5,1.65l-7.44,15.8L44.82,154.44z"/>
		<path class="st39" d="M88.49,125.19c-2.11,0.89-4.29,1.18-6.52,0.87c-2.23-0.31-4.28-1.22-6.15-2.72c-1.87-1.5-3.2-3.3-3.99-5.41
			c-0.79-2.11-0.98-4.29-0.57-6.55c0.41-2.26,1.4-4.37,2.97-6.33c1.57-1.96,3.41-3.39,5.53-4.28c2.11-0.89,4.28-1.19,6.5-0.88
			c2.22,0.31,4.28,1.22,6.16,2.73c1.89,1.51,3.22,3.32,4,5.42c0.78,2.1,0.97,4.28,0.56,6.54c-0.41,2.26-1.4,4.37-2.97,6.33
			C92.45,122.88,90.6,124.3,88.49,125.19z M92.79,114.25c0.25-1.49,0.09-2.94-0.48-4.36c-0.56-1.41-1.49-2.64-2.77-3.66
			c-1.28-1.03-2.68-1.66-4.18-1.91c-1.5-0.24-2.96-0.08-4.36,0.48c-1.4,0.56-2.61,1.49-3.64,2.77c-1.03,1.28-1.66,2.67-1.91,4.16
			c-0.25,1.49-0.08,2.94,0.48,4.35c0.57,1.42,1.49,2.64,2.77,3.67c1.28,1.03,2.68,1.66,4.18,1.91c1.51,0.24,2.96,0.08,4.36-0.48
			c1.4-0.56,2.61-1.49,3.64-2.77C91.91,117.12,92.55,115.74,92.79,114.25z"/>
		<path class="st39" d="M138.06,80.18l-9.62-13.21l1.38,15.7l-1.65,1.2l-14.37-6.02l9.47,13.06l-3.53,2.56l-14.47-19.96l3.05-2.21
			l17.52,7.48l-1.81-18.87l3.05-2.21l14.5,19.94L138.06,80.18z"/>
		<path class="st39" d="M180.4,48.17c1.12,0.69,1.96,1.76,2.52,3.2c0.77,1.99,0.59,3.83-0.52,5.5c-1.12,1.68-3.14,3.08-6.08,4.21
			l-11.44,4.4l-8.85-23.01l10.78-4.15c2.72-1.04,5.01-1.32,6.89-0.82c1.88,0.5,3.17,1.68,3.89,3.54c0.44,1.14,0.56,2.25,0.37,3.33
			c-0.19,1.08-0.65,2.04-1.39,2.87C178,47.17,179.28,47.48,180.4,48.17z M161.58,44.18l2.44,6.34l6.05-2.33
			c1.49-0.57,2.53-1.28,3.12-2.13c0.59-0.84,0.69-1.78,0.3-2.81c-0.4-1.05-1.11-1.69-2.12-1.92c-1.01-0.23-2.25-0.06-3.74,0.52
			L161.58,44.18z M178.44,52.6c-0.85-2.21-2.93-2.68-6.24-1.41l-6.9,2.65l2.55,6.64l6.9-2.65C178.06,56.55,179.29,54.81,178.44,52.6
			z"/>
		<path class="st39" d="M205.49,27.73l4.52-0.74L214,51.32l-4.52,0.74L205.49,27.73z"/>
		<path class="st39" d="M256.61,43.91L244.3,43.4l-2.67,5.6l-4.71-0.2l12.11-24.17l4.5,0.19l10.09,25.09l-4.79-0.2L256.61,43.91z
			 M255.25,40.26l-4.2-10.96l-5.06,10.57L255.25,40.26z"/>
		<path class="st39" d="M357.9,57.02l-18.51,18.21l-4.32-2.22l2.9-19.01l-13.83,13.41l-4.35-2.23l3.97-25.66l4.23,2.17l-3.09,19.47
			l14.21-13.77l3.76,1.93l-3.04,19.61l14.2-13.89L357.9,57.02z"/>
		<path class="st39" d="M381.19,103.11l-2.59,2.83l-13.63-12.49l16.66-18.17l13.26,12.16l-2.59,2.83l-9.89-9.07l-4.33,4.72
			l8.77,8.04l-2.55,2.78l-8.77-8.04l-4.59,5.01L381.19,103.11z"/>
		<path class="st39" d="M414.97,110.78l2.62,3.76l-17.05,11.88l7.37,10.57l-3.18,2.21l-9.98-14.33L414.97,110.78z"/>
		<path class="st39" d="M438.51,150.47l1.76,4.23l-19.18,7.99l4.96,11.9l-3.57,1.49l-6.72-16.12L438.51,150.47z"/>
		<path class="st39" d="M456.81,216.22l-24.33,3.94l-0.6-3.72l14.3-16.09l-16.48,2.67l-0.73-4.48l24.33-3.94l0.6,3.72l-14.3,16.09
			l16.48-2.67L456.81,216.22z"/>
		<path class="st39" d="M435.57,265.14l-3.83-0.31l1.48-18.43l24.57,1.98l-1.44,17.93l-3.83-0.31l1.08-13.37l-6.39-0.51l-0.96,11.86
			l-3.75-0.3l0.96-11.86l-6.77-0.55L435.57,265.14z"/>
		<path class="st39" d="M426.57,291.4c1.04-1.53,2.14-2.66,3.3-3.38l2.92,2.57c-1.06,0.73-2.05,1.72-2.97,2.97
			c-0.92,1.25-1.6,2.58-2.04,3.99c-0.54,1.75-0.67,3.14-0.38,4.18c0.29,1.04,0.9,1.7,1.82,1.99c0.67,0.21,1.3,0.14,1.89-0.2
			s1.12-0.85,1.6-1.51c0.48-0.66,1.07-1.58,1.78-2.76c0.98-1.66,1.86-2.98,2.63-3.96c0.77-0.98,1.74-1.72,2.89-2.24
			c1.15-0.51,2.5-0.53,4.05-0.05c1.3,0.4,2.37,1.13,3.22,2.16c0.84,1.04,1.36,2.37,1.54,3.98c0.19,1.62-0.04,3.46-0.68,5.52
			c-0.45,1.43-1.07,2.79-1.86,4.07c-0.79,1.28-1.68,2.32-2.66,3.12l-2.97-2.44c0.93-0.84,1.72-1.78,2.38-2.8
			c0.66-1.02,1.16-2.06,1.48-3.11c0.54-1.73,0.64-3.1,0.32-4.12c-0.32-1.02-0.96-1.68-1.93-1.98c-0.67-0.21-1.3-0.14-1.87,0.21
			c-0.58,0.35-1.1,0.86-1.58,1.52c-0.48,0.66-1.07,1.58-1.78,2.76c-0.95,1.62-1.81,2.93-2.6,3.91c-0.79,0.98-1.75,1.74-2.89,2.25
			s-2.48,0.54-4,0.06c-1.3-0.4-2.37-1.12-3.2-2.16c-0.83-1.03-1.34-2.37-1.52-4c-0.18-1.63,0.05-3.48,0.69-5.54
			C424.73,294.6,425.53,292.93,426.57,291.4z"/>
		<path class="st39" d="M410.91,330.34c1.35-1.27,2.67-2.12,3.96-2.57l2.29,3.15c-1.2,0.48-2.38,1.22-3.55,2.24
			c-1.17,1.02-2.12,2.17-2.86,3.45c-0.91,1.59-1.34,2.92-1.29,3.99c0.06,1.07,0.5,1.85,1.34,2.33c0.61,0.35,1.24,0.42,1.89,0.21
			c0.65-0.21,1.28-0.58,1.89-1.13c0.61-0.54,1.39-1.31,2.34-2.31c1.33-1.4,2.47-2.5,3.44-3.28c0.97-0.78,2.07-1.3,3.31-1.55
			c1.24-0.25,2.56,0.03,3.97,0.84c1.18,0.68,2.07,1.62,2.66,2.82c0.6,1.2,0.81,2.61,0.63,4.23c-0.18,1.62-0.8,3.37-1.88,5.24
			c-0.75,1.3-1.65,2.49-2.7,3.56c-1.05,1.07-2.15,1.89-3.28,2.46l-2.36-3.03c1.09-0.62,2.07-1.36,2.94-2.21
			c0.87-0.85,1.58-1.76,2.13-2.71c0.9-1.57,1.31-2.88,1.22-3.95c-0.09-1.07-0.57-1.85-1.45-2.36c-0.61-0.35-1.23-0.42-1.87-0.21
			c-0.64,0.22-1.26,0.59-1.87,1.14c-0.61,0.54-1.39,1.31-2.35,2.31c-1.28,1.37-2.41,2.46-3.39,3.25c-0.98,0.79-2.09,1.31-3.32,1.56
			c-1.23,0.25-2.54-0.02-3.92-0.81c-1.18-0.68-2.06-1.62-2.65-2.81c-0.59-1.19-0.79-2.6-0.61-4.23c0.18-1.63,0.81-3.38,1.89-5.25
			C408.41,333.07,409.56,331.61,410.91,330.34z"/>
		<path class="st39" d="M352.89,425.57l-7.79-24.77l3.94-2.84l15.61,11.23l-5.64-18.42l3.97-2.86l21.04,15.22l-3.86,2.78
			l-15.92-11.61l5.78,18.92l-3.43,2.47l-16.07-11.64l5.9,18.97L352.89,425.57z"/>
		<path class="st39" d="M301.31,425.42l-1.35-3.59l17.31-6.49l8.66,23.08l-16.85,6.32l-1.35-3.59l12.56-4.71l-2.25-6l-11.14,4.18
			l-1.32-3.53l11.14-4.18l-2.39-6.36L301.31,425.42z"/>
		<path class="st39" d="M257.97,433.9l-0.5-3.8l18.33-2.41l3.21,24.44l-17.84,2.34l-0.5-3.81l13.3-1.75l-0.84-6.35l-11.8,1.55
			l-0.49-3.74l11.8-1.55l-0.88-6.74L257.97,433.9z"/>
		<path class="st39" d="M223.12,439.76l4.3-3.59l0.65-6.27l4.55,0.47l-2.54,24.52l-4.55-0.47l1.3-12.57l-13.42,11.32l-5.11-0.53
			l11.43-9.89l-9.52-14.69l5.32,0.55L223.12,439.76z"/>
		<path class="st39" d="M144.03,407.74l1.8-3.43l16.09,8.44l-1.42,2.71l-12.99,3.69c-1.47,0.42-2.56,0.89-3.26,1.41
			c-0.71,0.52-1.24,1.12-1.6,1.8c-0.53,1.02-0.6,1.98-0.2,2.88c0.4,0.9,1.27,1.7,2.6,2.4c2.22,1.17,4.33,1.3,6.31,0.41l1.69,3.67
			c-1.45,0.69-3.07,0.98-4.84,0.86s-3.56-0.65-5.35-1.59c-2.37-1.24-3.97-2.8-4.79-4.66c-0.82-1.86-0.73-3.76,0.28-5.7
			c0.62-1.19,1.45-2.17,2.5-2.95c1.04-0.78,2.62-1.46,4.73-2.05l8.74-2.49L144.03,407.74z"/>
		<path class="st39" d="M122.7,389.57c0.54,1.76,0.53,3.66-0.03,5.7c-0.56,2.04-1.69,4.06-3.39,6.06c-1.7,2-3.51,3.45-5.43,4.33
			c-1.92,0.88-3.79,1.2-5.62,0.96c-1.83-0.24-3.49-1-5-2.27c-1.5-1.28-2.53-2.8-3.07-4.57c-0.54-1.77-0.54-3.68,0.02-5.71
			c0.56-2.04,1.69-4.06,3.39-6.06c1.7-2,3.51-3.45,5.43-4.33c1.92-0.88,3.8-1.2,5.63-0.95c1.84,0.25,3.51,1.01,5.01,2.29
			C121.14,386.28,122.16,387.8,122.7,389.57z M112.47,387.01c-1.72,0.45-3.51,1.78-5.38,3.98c-1.87,2.2-2.88,4.19-3.05,5.96
			c-0.16,1.77,0.43,3.22,1.77,4.36c1.33,1.12,2.85,1.46,4.57,1.01c1.72-0.45,3.51-1.78,5.38-3.98c1.87-2.2,2.88-4.19,3.04-5.96
			c0.16-1.77-0.42-3.22-1.74-4.34C115.72,386.9,114.19,386.56,112.47,387.01z"/>
		<path class="st39" d="M82.15,350.07l3.09-2.34l10.98,14.48l-2.44,1.85l-13.32-2.18c-1.51-0.24-2.69-0.28-3.55-0.11
			c-0.86,0.17-1.6,0.48-2.22,0.95c-0.92,0.69-1.38,1.54-1.4,2.52c-0.02,0.99,0.43,2.08,1.33,3.27c1.52,2,3.36,3.02,5.54,3.05
			l-0.03,4.04c-1.61,0.01-3.19-0.41-4.75-1.28c-1.56-0.87-2.94-2.11-4.16-3.71c-1.62-2.13-2.4-4.22-2.36-6.25
			c0.05-2.04,0.94-3.72,2.68-5.04c1.07-0.81,2.24-1.34,3.51-1.6c1.28-0.26,3-0.21,5.16,0.16l8.97,1.46L82.15,350.07z"/>
		<path class="st39" d="M55.24,320.02c0.52-2.08,1.83-3.62,3.93-4.6c1.34-0.63,2.71-0.87,4.1-0.71c1.39,0.15,2.72,0.74,3.97,1.76
			c1.25,1.02,2.33,2.5,3.24,4.43c0.75,1.59,1.24,3.24,1.48,4.94c0.24,1.7,0.2,3.25-0.13,4.65l-4.04-0.25
			c0.29-1.15,0.36-2.39,0.21-3.74c-0.15-1.34-0.51-2.63-1.09-3.86c-0.69-1.47-1.53-2.48-2.53-3.03c-1-0.56-2.03-0.58-3.09-0.09
			c-1.15,0.54-1.8,1.39-1.96,2.57c-0.16,1.18,0.27,2.86,1.3,5.05l2.52,5.39l-12.69,4.54l-6.14-13.11l3.47-1.63l4.5,9.6l5.39-1.94
			l-1-2.14C55.2,324.71,54.72,322.1,55.24,320.02z"/>
	</g>
	<g>
		<defs>
			<circle id="SVGID_00000036943039941370298280000016507947891278752643_" cx="242.56" cy="239.8" r="160.25"/>
		</defs>
		<clipPath id="SVGID_00000024697472468564789470000009962360875460814008_">
			<use xlink:href="#SVGID_00000036943039941370298280000016507947891278752643_"  style="overflow:visible;"/>
		</clipPath>
		
			<linearGradient id="SVGID_00000029760577386285110380000006015780711102829217_" gradientUnits="userSpaceOnUse" x1="244.7409" y1="-107.3912" x2="244.7409" y2="462.0468">
			<stop  offset="0" style="stop-color:#4E9BD3"/>
			<stop  offset="0.5447" style="stop-color:#2D6FB5"/>
			<stop  offset="0.5826" style="stop-color:#2D73B5"/>
			<stop  offset="0.6449" style="stop-color:#2C80B6"/>
			<stop  offset="0.724" style="stop-color:#2A96B8"/>
			<stop  offset="0.8076" style="stop-color:#2DB1B6"/>
		</linearGradient>
		
			<rect x="75.46" y="51.19" style="clip-path:url(#SVGID_00000024697472468564789470000009962360875460814008_);fill:url(#SVGID_00000029760577386285110380000006015780711102829217_);" width="338.57" height="421.71"/>
		<g style="opacity:0.44;clip-path:url(#SVGID_00000024697472468564789470000009962360875460814008_);">
			<rect x="-40.51" y="247.9" class="st262" width="610.04" height="14.17"/>
			<rect x="-40.51" y="72.47" class="st263" width="610.04" height="91.43"/>
			<rect x="-38.88" y="173.96" class="st263" width="610.04" height="30.44"/>
			<rect x="-40.51" y="211.95" class="st264" width="610.04" height="29.88"/>
		</g>
		
			<linearGradient id="SVGID_00000003082097304336256320000007474436660870335361_" gradientUnits="userSpaceOnUse" x1="-5136.8042" y1="263.0136" x2="-5136.8042" y2="435.5045" gradientTransform="matrix(0.3085 -0.9512 0.9512 0.3085 1528.1438 -4763.6528)">
			<stop  offset="0.0112" style="stop-color:#FDEE42"/>
			<stop  offset="1" style="stop-color:#F37152"/>
		</linearGradient>
		
			<circle style="clip-path:url(#SVGID_00000024697472468564789470000009962360875460814008_);fill:url(#SVGID_00000003082097304336256320000007474436660870335361_);" cx="272.91" cy="229.47" r="62.37"/>
		<g style="clip-path:url(#SVGID_00000024697472468564789470000009962360875460814008_);">
			<g>
				<g>
					<g>
						<g>
							<g>
								<path class="st37" d="M510.14,495.08c2.33,0.78-35.66-106.99-43.42-113.19c-7.75-6.2-19.38-7.75-20.93-15.51
									c-1.55-7.75-6.98-27.91-20.16-34.89c-13.18-6.98-3.55-68.46-17.5-73.88c-13.96-5.43-64.68,3.33-69.33,7.21
									c-4.65,3.88-40.32,83.73-50.39,86.83s-41.87,9.3-44.19,18.61c-2.33,9.3-89.93,113.97-89.93,117.07
									c0,3.1,113.19,139.55,113.19,139.55s146.53,0.78,167.46-3.1C455.87,619.9,510.14,495.08,510.14,495.08z"/>
							</g>
						</g>
					</g>
				</g>
				<g>
					<g>
						<path class="st39" d="M308.23,317.69c0,0,1.08-41.45,1.08-45.37s0.36-42.36,0.36-42.36h2.37c0,0,1.58,32.92,1.22,40.05
							c-0.36,7.13-0.07,31.12-0.36,37.44c-0.29,6.32-0.86,11.54-0.86,11.54L308.23,317.69z"/>
					</g>
					<g>
						<g>
							<path class="st39" d="M308.9,231.39c-3.42-5.5-8.11-11.14-13.17-15.19c1.47-0.85,3.34-0.45,4.92,0.18
								c5.71,2.28,9.76,8.41,11.18,14.4"/>
						</g>
						<g>
							<path class="st39" d="M310.64,230.94c-0.2-4.15,0.17-8.83,1.52-12.77c1.35-3.93,4.19-7.54,8.11-8.91
								c-1.77,7.28-4.74,15.72-7.25,22.77"/>
						</g>
						<g>
							<path class="st39" d="M309.02,231.67c3.48-2.01,7.09-3.93,11.02-4.72c3.94-0.79,8.3-0.3,11.48,2.15
								c-6.94,0.83-13.83,2.08-20.62,3.72"/>
						</g>
					</g>
				</g>
				<g>
					<g>
						<path class="st39" d="M256.88,234.91c0,0,0.73-28.29,0.73-30.96c0-2.67,0.24-28.91,0.24-28.91h1.61c0,0,1.08,22.47,0.83,27.33
							c-0.24,4.86-0.05,21.23-0.24,25.55c-0.2,4.32-0.59,7.88-0.59,7.88L256.88,234.91z"/>
					</g>
					<g>
						<g>
							<g>
								<path class="st39" d="M257.6,175.81c-4.64-2.18-9.76-3.35-14.89-3.39c5.22-2.61,12.49-1.89,17.76,2.65"/>
							</g>
						</g>
						<g>
							<g>
								<path class="st39" d="M257.76,174.61c-2.04-3.69-4.9-7.51-8.06-10.31c0.98-0.5,2.19-0.18,3.19,0.28
									c3.64,1.67,6.06,5.79,6.79,9.73"/>
							</g>
						</g>
						<g>
							<g>
								<path class="st39" d="M258.88,174.57c0.01-1.96,0.29-4.15,1.02-5.97c0.73-1.82,2.15-3.45,4.03-4
									c-1.01,3.38-2.61,7.28-3.96,10.53"/>
							</g>
						</g>
						<g>
							<g>
								<path class="st39" d="M257.82,174.8c2.33-1.19,4.74-2.32,7.32-2.7c2.59-0.38,5.41,0.08,7.39,1.78
									c-4.54,0.31-9.06,0.89-13.53,1.73"/>
							</g>
						</g>
					</g>
				</g>
				<g>
					<g>
						<path class="st39" d="M175.89,182.99c0,0,0.38-14.74,0.38-16.13c0-1.39,0.13-15.06,0.13-15.06h0.84c0,0,0.56,11.71,0.43,14.24
							c-0.13,2.53-0.03,11.06-0.13,13.31c-0.1,2.25-0.31,4.1-0.31,4.1L175.89,182.99z"/>
					</g>
					<g>
						<g>
							<g>
								<path class="st39" d="M176.43,152.38c-2.59-1.06-5.42-1.55-8.22-1.43c2.77-1.57,6.76-1.38,9.76,0.95"/>
							</g>
						</g>
						<g>
							<g>
								<path class="st39" d="M176.18,151.29c-1.21-1.96-2.88-3.96-4.68-5.4c0.52-0.3,1.19-0.16,1.75,0.06
									c2.03,0.81,3.47,2.99,3.98,5.12"/>
							</g>
						</g>
						<g>
							<g>
								<path class="st39" d="M176.8,151.13c-0.07-1.48,0.06-3.14,0.54-4.54c0.48-1.4,1.49-2.68,2.89-3.17
									c-0.63,2.59-1.68,5.59-2.58,8.1"/>
							</g>
						</g>
						<g>
							<g>
								<path class="st39" d="M177.22,151.4c2.71-0.5,5.67,0.7,7.25,2.96c-2.57-0.29-5.31-1.3-7.69-2.32"/>
							</g>
						</g>
					</g>
				</g>
				<g>
					<g>
						<path class="st39" d="M93.86,293.39c0,0,0.56-21.48,0.56-23.51c0-2.03,0.19-21.95,0.19-21.95h1.23c0,0,0.82,17.06,0.63,20.75
							c-0.19,3.69-0.04,16.12-0.19,19.4c-0.15,3.28-0.45,5.98-0.45,5.98L93.86,293.39z"/>
					</g>
					<g>
						<g>
							<path class="st39" d="M94.78,247.88c-1.91-0.48-3.88-0.87-5.84-0.69c-1.96,0.18-3.93,1-5.15,2.56
								c3.87-0.49,7.78-0.63,11.67-0.39"/>
						</g>
						<g>
							<path class="st39" d="M93.25,248.55c-3.1-2.66-6.78-4.63-10.71-5.74c4.56-0.9,9.99,1.18,13.07,5.78"/>
						</g>
						<g>
							<path class="st39" d="M94.5,247.44c-0.79-3.26-2.18-6.8-4.01-9.62c0.86-0.18,1.72,0.32,2.39,0.89
								c2.44,2.05,3.43,5.73,3.16,8.9"/>
						</g>
						<g>
							<path class="st39" d="M95.43,247.5c0.58-2.08,1.52-4.32,2.82-6.03c1.3-1.72,3.29-3.03,5.44-3.07
								c-2.06,3.29-4.89,6.96-7.27,10.03"/>
						</g>
						<g>
							<path class="st39" d="M94.51,247.6c2.04-0.42,4.13-0.78,6.19-0.53c2.07,0.25,4.13,1.2,5.3,2.93
								c-3.55-0.72-7.14-1.23-10.75-1.53"/>
						</g>
					</g>
				</g>
				<g>
					<g>
						<path class="st39" d="M127.74,249.24c0,0,0.86-33.19,0.86-36.32c0-3.13,0.29-33.91,0.29-33.91h1.89c0,0,1.26,26.36,0.98,32.06
							c-0.29,5.71-0.06,24.91-0.29,29.98c-0.23,5.06-0.69,9.24-0.69,9.24L127.74,249.24z"/>
					</g>
					<g>
						<g>
							<path class="st39" d="M129.02,178.36c-3.04,0.22-6.11,0.61-8.9,1.83c-2.79,1.22-5.28,3.38-6.31,6.25
								c5.43-2.6,11.1-4.69,16.92-6.23"/>
						</g>
						<g>
							<path class="st39" d="M127.1,180.09c-5.84-2.39-12.2-3.5-18.5-3.23c6.25-3.53,15.22-3.11,21.98,2.14"/>
						</g>
						<g>
							<path class="st39" d="M128.39,177.85c-2.74-4.41-6.49-8.92-10.54-12.16c1.18-0.68,2.67-0.36,3.94,0.14
								c4.57,1.83,7.81,6.74,8.95,11.53"/>
						</g>
						<g>
							<path class="st39" d="M128.49,178.08c2.78-1.61,5.67-3.15,8.83-3.78c3.15-0.63,6.65-0.24,9.19,1.72
								c-5.56,0.67-11.07,1.66-16.51,2.98"/>
						</g>
						<g>
							<path class="st39" d="M130.74,178.1c6.11-1.13,12.76,1.59,16.32,6.67c-5.79-0.65-11.95-2.94-17.31-5.22"/>
						</g>
					</g>
				</g>
				<g>
					<g>
						<path class="st39" d="M214.07,217.16c0,0,0.86-33.19,0.86-36.32s0.29-33.91,0.29-33.91h1.89c0,0,1.26,26.36,0.98,32.06
							c-0.29,5.71-0.06,24.91-0.29,29.98c-0.23,5.06-0.69,9.24-0.69,9.24L214.07,217.16z"/>
					</g>
					<g>
						<g>
							<path class="st39" d="M215.35,146.29c-3.04,0.22-6.11,0.61-8.9,1.83c-2.79,1.22-5.28,3.38-6.31,6.25
								c5.43-2.6,11.1-4.69,16.92-6.23"/>
						</g>
						<g>
							<path class="st39" d="M213.43,148.02c-5.84-2.39-12.2-3.5-18.5-3.23c6.25-3.53,15.22-3.11,21.98,2.14"/>
						</g>
						<g>
							<path class="st39" d="M214.72,145.77c-2.74-4.41-6.49-8.92-10.54-12.16c1.18-0.68,2.67-0.36,3.94,0.14
								c4.57,1.83,7.81,6.74,8.95,11.53"/>
						</g>
						<g>
							<path class="st39" d="M214.82,146c2.78-1.61,5.67-3.15,8.83-3.78c3.15-0.63,6.65-0.24,9.19,1.72
								c-5.56,0.67-11.07,1.66-16.51,2.98"/>
						</g>
						<g>
							<path class="st39" d="M217.07,146.03c6.11-1.13,12.76,1.59,16.32,6.67c-5.79-0.65-11.95-2.94-17.31-5.22"/>
						</g>
					</g>
				</g>
				<g>
					<g>
						<g>
							<g>
								<path class="st39" d="M30.17,406.72c-2.58,0.86,39.56-118.69,48.16-125.57c8.6-6.88,25.83-4.74,27.55-13.34
									c1.72-8.6-0.28-30.9,14.34-38.64c14.62-7.74,24.62-59.01,40.1-65.03c15.48-6.02,66.16,0.24,71.32,4.54
									c5.16,4.3,26.08,65.02,37.27,68.46c11.18,3.44,55.05,6.08,57.63,16.4c2.58,10.32,98.39,141.15,98.39,144.59
									c0,3.44-125.57,154.81-125.57,154.81s-162.55,0.86-185.77-3.44C90.38,545.19,30.17,406.72,30.17,406.72z"/>
							</g>
						</g>
					</g>
				</g>
				<g>
					<g>
						<g>
							<path class="st267" d="M333,442.15c0,0,1.08-41.45,1.08-45.37c0-3.91,0.36-42.36,0.36-42.36h2.37c0,0,1.58,32.92,1.22,40.05
								c-0.36,7.13-0.07,31.12-0.36,37.44c-0.29,6.32-0.86,11.54-0.86,11.54L333,442.15z"/>
						</g>
						<g>
							<g>
								<path class="st267" d="M334.6,353.63c-3.79,0.27-7.63,0.76-11.11,2.28s-6.6,4.22-7.88,7.8c6.78-3.25,13.87-5.86,21.14-7.79"
									/>
							</g>
							<g>
								<path class="st267" d="M332.2,355.78c-7.29-2.99-15.23-4.37-23.11-4.03c7.8-4.41,19.01-3.88,27.45,2.67"/>
							</g>
							<g>
								<path class="st267" d="M333.81,352.98c-3.42-5.5-8.11-11.14-13.17-15.19c1.47-0.85,3.34-0.45,4.92,0.18
									c5.71,2.28,9.76,8.41,11.18,14.4"/>
							</g>
							<g>
								<path class="st267" d="M335.55,352.54c-0.2-4.15,0.17-8.83,1.52-12.77c1.35-3.93,4.19-7.54,8.11-8.91
									c-1.77,7.28-4.74,15.72-7.25,22.77"/>
							</g>
							<g>
								<path class="st267" d="M333.93,353.27c3.48-2.01,7.09-3.93,11.02-4.72c3.94-0.79,8.3-0.3,11.48,2.15
									c-6.94,0.83-13.83,2.08-20.62,3.72"/>
							</g>
							<g>
								<path class="st267" d="M336.74,353.3c7.63-1.42,15.94,1.98,20.38,8.34c-7.23-0.82-14.93-3.67-21.62-6.52"/>
							</g>
						</g>
					</g>
				</g>
				<g>
					<g>
						<g>
							<path class="st267" d="M128.85,408.24c0,0,0.86-33.19,0.86-36.32S130,338,130,338h1.89c0,0,1.26,26.36,0.98,32.06
								s-0.06,24.91-0.29,29.98c-0.23,5.06-0.69,9.24-0.69,9.24L128.85,408.24z"/>
						</g>
						<g>
							<g>
								<path class="st267" d="M130.13,337.36c-3.04,0.22-6.11,0.61-8.9,1.83c-2.79,1.22-5.28,3.38-6.31,6.25
									c5.43-2.6,11.1-4.69,16.92-6.23"/>
							</g>
							<g>
								<path class="st267" d="M128.21,339.09c-5.84-2.39-12.2-3.5-18.5-3.23c6.25-3.53,15.22-3.11,21.98,2.14"/>
							</g>
							<g>
								<path class="st267" d="M129.51,336.85c-2.74-4.41-6.49-8.92-10.54-12.16c1.18-0.68,2.67-0.36,3.94,0.14
									c4.57,1.83,7.81,6.74,8.95,11.53"/>
							</g>
							<g>
								<path class="st267" d="M130.9,336.49c-0.16-3.33,0.13-7.07,1.22-10.22c1.08-3.15,3.35-6.04,6.5-7.14
									c-1.42,5.83-3.79,12.59-5.8,18.23"/>
							</g>
							<g>
								<path class="st267" d="M129.6,337.08c2.78-1.61,5.67-3.15,8.83-3.78c3.15-0.63,6.65-0.24,9.19,1.72
									c-5.56,0.67-11.07,1.66-16.51,2.98"/>
							</g>
							<g>
								<path class="st267" d="M131.85,337.1c6.11-1.13,12.76,1.59,16.32,6.67c-5.79-0.65-11.95-2.94-17.31-5.22"/>
							</g>
						</g>
					</g>
				</g>
				<g>
					<g>
						<g>
							<path class="st37" d="M367.04,282.31c0,0,1.59-30.82,1.59-33.35c0-2.52,0.23-27.32,0.23-27.32h1.53
								c0,0,1.02,21.23,0.79,25.83s-0.05,20.07-0.23,24.15c-0.18,4.08-0.59,10.69-0.59,10.69H367.04z"/>
						</g>
						<g>
							<g>
								<path class="st37" d="M368.94,223.07c-4.7-1.93-9.83-2.82-14.9-2.6c5.03-2.85,12.26-2.5,17.71,1.72"/>
							</g>
							<g>
								<path class="st37" d="M370.13,221.36c4.92-0.91,10.28,1.28,13.15,5.38c-4.66-0.53-9.63-2.37-13.95-4.21"/>
							</g>
							<g>
								<path class="st37" d="M369.02,221.19c2.35-4.41,7.41-7.24,12.4-6.92c-3.32,3.32-7.86,6.05-11.99,8.28"/>
							</g>
							<g>
								<path class="st37" d="M369.71,222.7c-3.91-3.12-5.77-8.6-4.55-13.46c2.66,3.87,4.52,8.82,5.96,13.29"/>
							</g>
							<g>
								<path class="st37" d="M369.89,222.64c-2.63,4.25-7.86,6.74-12.82,6.11c3.53-3.1,8.23-5.53,12.49-7.49"/>
							</g>
						</g>
					</g>
				</g>
			</g>
		</g>
	</g>
	<g>
		<path class="st39" d="M242.56,413.84c-95.96,0-174.04-78.07-174.04-174.04S146.59,65.76,242.56,65.76s174.04,78.07,174.04,174.04
			S338.52,413.84,242.56,413.84z M242.56,72.99c-91.98,0-166.81,74.83-166.81,166.81s74.83,166.81,166.81,166.81
			c91.98,0,166.81-74.83,166.81-166.81S334.54,72.99,242.56,72.99z"/>
	</g>
	<g>
		<g>
			<path class="st20" d="M141.55,275.57c2.77-3.25,5.61-7.14,8.51-11.65c2.9-4.51,5.51-9.25,7.81-14.21c2.3-4.96,4.07-9.96,5.32-15
				c1.24-5.03,1.56-9.7,0.94-13.99c-0.15-1.06-0.41-1.95-0.77-2.7c-0.36-0.74-0.57-1.3-0.62-1.67c-0.12-0.81,0.2-1.27,0.95-1.37
				c0.87-0.12,1.99-0.03,3.37,0.28c1.38,0.31,2.72,0.8,4.02,1.47c1.3,0.67,2.45,1.5,3.45,2.5c1,1,1.59,2.15,1.78,3.46
				c0.38,2.67,0.18,5.64-0.63,8.9c-0.8,3.26-2.01,6.68-3.62,10.28c-1.61,3.6-3.53,7.27-5.75,11.01c-2.22,3.75-4.58,7.43-7.07,11.06
				c-2.49,3.63-5.04,7.1-7.64,10.43c-2.6,3.32-5.04,6.36-7.31,9.09c-1.08,1.3-2.1,2.43-3.04,3.39c-0.94,0.96-1.85,1.5-2.72,1.63
				c-0.62,0.09-1.42-0.13-2.38-0.66c-0.96-0.53-1.91-1.25-2.83-2.16c-0.93-0.91-1.75-1.92-2.48-3.02c-0.73-1.1-1.18-2.21-1.34-3.33
				c-0.31-2.18-0.35-4.68-0.13-7.5c0.23-2.82,0.58-5.76,1.07-8.82c0.48-3.05,1.03-6.18,1.65-9.38c0.62-3.2,1.17-6.29,1.67-9.28
				c0.49-2.99,0.87-5.79,1.13-8.4c0.26-2.61,0.25-4.87-0.03-6.8c-0.16-1.12-0.61-2.05-1.35-2.8c-0.74-0.75-1.83-1.02-3.26-0.82
				c-2.36,0.34-4.68,1.45-6.95,3.33c-2.27,1.88-4.26,4.12-5.98,6.71c-1.72,2.6-3.04,5.33-3.96,8.19c-0.92,2.86-1.22,5.41-0.9,7.65
				c0.26,1.8,0.71,3.26,1.34,4.38c0.64,1.12,1.31,2.03,2.01,2.76c0.71,0.72,1.33,1.27,1.85,1.64c0.53,0.37,0.82,0.71,0.86,1.02
				c0.17,1.18-0.4,1.87-1.7,2.05c-1.24,0.18-2.81,0.02-4.68-0.47c-1.88-0.49-3.73-1.24-5.56-2.25c-1.83-1.01-3.45-2.26-4.87-3.77
				c-1.42-1.51-2.27-3.2-2.54-5.06c-0.31-2.18-0.04-4.45,0.83-6.83c0.86-2.38,2.15-4.7,3.85-6.98c1.7-2.28,3.71-4.45,6.01-6.53
				c2.3-2.08,4.73-3.93,7.29-5.57c2.56-1.64,5.12-3,7.69-4.1c2.57-1.1,5.01-1.81,7.31-2.14c1.87-0.27,3.61-0.23,5.25,0.1
				c1.63,0.34,3.08,0.89,4.33,1.66c1.25,0.77,2.28,1.77,3.09,2.98c0.81,1.22,1.32,2.57,1.54,4.06c0.31,2.18,0.38,4.63,0.2,7.35
				c-0.18,2.72-0.49,5.56-0.92,8.51c-0.43,2.95-0.94,5.94-1.52,8.98c-0.58,3.03-1.1,5.93-1.56,8.7c-0.46,2.76-0.8,5.34-1.03,7.72
				C141.32,271.96,141.32,273.95,141.55,275.57z"/>
			<path class="st20" d="M186.3,271.62c0.15,1.06,0.54,1.87,1.16,2.45c0.62,0.58,1.4,0.8,2.33,0.66c1.24-0.18,2.41-0.76,3.51-1.74
				c1.1-0.98,2.04-2.07,2.82-3.26c0.96-1.28,1.79-2.76,2.5-4.45c0.03-0.2,0.16-0.43,0.37-0.72c0.11-0.14,0.27-0.31,0.5-0.5
				c0.23-0.19,0.49-0.31,0.81-0.35c0.5-0.07,0.97,0.05,1.43,0.37c0.46,0.31,0.72,0.72,0.79,1.22c0.04,0.25,0.02,0.49-0.04,0.72
				c-0.06,0.23-0.14,0.48-0.23,0.75c-0.09,0.27-0.17,0.56-0.25,0.89c-1.06,2.37-2.3,4.52-3.74,6.44c-1.23,1.64-2.73,3.19-4.52,4.65
				c-1.79,1.46-3.83,2.36-6.13,2.69c-3.54,0.51-6.54-0.03-8.99-1.61c-2.45-1.58-3.89-3.9-4.33-6.95c-0.24-1.68-0.25-3.74-0.03-6.18
				c0.22-2.44,0.53-4.93,0.93-7.46c0.4-2.53,0.86-4.95,1.39-7.24c0.53-2.3,0.98-4.14,1.35-5.52c0.18-0.53,0.46-1,0.85-1.41
				c0.39-0.4,0.86-0.65,1.42-0.73c0.68-0.1,1.49,0.01,2.43,0.32c0.93,0.31,1.81,0.69,2.64,1.14c0.83,0.45,1.53,0.94,2.11,1.46
				c0.58,0.52,0.9,0.97,0.95,1.34c0.21,1.43,0.15,3.01-0.18,4.74c-0.32,1.73-0.68,3.57-1.06,5.53c-0.38,1.96-0.69,4.02-0.92,6.18
				C185.93,267.18,185.98,269.38,186.3,271.62z M193.28,224.82c0.18,1.24,0.15,2.47-0.09,3.68c-0.24,1.21-0.65,2.32-1.24,3.32
				c-0.59,1.01-1.29,1.84-2.12,2.49c-0.83,0.66-1.74,1.06-2.73,1.2c-1.37,0.2-2.62-0.1-3.74-0.89c-1.13-0.79-1.81-2.02-2.06-3.7
				c-0.17-1.18-0.12-2.36,0.16-3.54c0.27-1.18,0.7-2.27,1.29-3.28c0.59-1,1.31-1.84,2.16-2.5c0.86-0.66,1.81-1.07,2.87-1.22
				c1.37-0.2,2.57,0.11,3.61,0.91C192.43,222.09,193.06,223.27,193.28,224.82z"/>
			<path class="st20" d="M235.67,262.07c-0.83,1.71-1.98,3.24-3.43,4.59c-1.22,1.25-2.78,2.43-4.68,3.53
				c-1.9,1.1-4.23,1.84-6.96,2.24c-1.31,0.19-2.87,0.22-4.7,0.1c-1.83-0.12-3.5-0.39-5.02-0.8c-3.05,2.6-5.52,4.43-7.4,5.49
				c-1.88,1.06-3.41,1.68-4.59,1.85c-0.5,0.07-1.05-0.04-1.67-0.33c-0.61-0.29-1.2-0.72-1.75-1.27c-0.56-0.55-1.03-1.2-1.42-1.94
				c-0.39-0.74-0.65-1.51-0.76-2.32c-0.38-2.61-0.49-5.39-0.34-8.33c0.15-2.94,0.4-5.8,0.77-8.58c0.36-2.78,0.8-5.34,1.33-7.66
				c0.52-2.33,0.97-4.18,1.34-5.57c0.18-0.53,0.46-1,0.84-1.41c0.39-0.4,0.86-0.65,1.42-0.73c0.68-0.1,1.5,0.06,2.45,0.46
				c0.95,0.4,1.84,0.89,2.69,1.47c0.84,0.58,1.56,1.17,2.16,1.78c0.6,0.61,0.92,1.11,0.97,1.48c0.21,1.43,0.12,3.08-0.24,4.94
				c-0.37,1.86-0.81,3.78-1.31,5.76c-0.51,1.98-0.94,3.93-1.3,5.85c-0.36,1.92-0.43,3.63-0.22,5.12c0.1,0.68,0.32,1.26,0.67,1.71
				c0.35,0.46,0.77,0.65,1.27,0.58c0.37-0.05,0.79-0.27,1.24-0.65l-0.07-0.47c-0.07-0.5,0.02-1.05,0.29-1.66
				c0.26-0.61,0.61-1.17,1.04-1.67c0.44-0.51,0.9-0.94,1.39-1.29c0.49-0.36,0.92-0.56,1.29-0.61l0.09-0.01
				c0.8-1.51,1.56-3.19,2.27-5.04c0.72-1.85,1.33-3.79,1.83-5.83c0.5-2.04,0.84-4.12,1.01-6.24c0.17-2.12,0.11-4.2-0.18-6.26
				c-0.18-1.24,0.38-1.96,1.69-2.15c0.75-0.11,1.58-0.04,2.51,0.21c0.92,0.25,1.81,0.66,2.65,1.24c0.84,0.58,1.58,1.3,2.21,2.16
				c0.63,0.86,1.02,1.82,1.17,2.88c0.17,1.18,0.05,2.64-0.37,4.38c-0.42,1.74-1.07,3.58-1.97,5.52c-0.9,1.94-1.99,3.92-3.29,5.95
				c-1.3,2.03-2.7,3.94-4.22,5.75c0.76,0.46,1.6,0.85,2.5,1.16c0.9,0.32,2.01,0.38,3.31,0.19c1.62-0.23,3.03-0.77,4.24-1.61
				c1.21-0.84,2.26-1.74,3.14-2.69c0.99-1.09,1.89-2.3,2.72-3.63c0.03-0.2,0.16-0.43,0.37-0.72c0.11-0.14,0.27-0.31,0.5-0.5
				c0.23-0.19,0.49-0.31,0.81-0.35c0.5-0.07,0.97,0.05,1.43,0.37c0.46,0.31,0.72,0.72,0.79,1.22c0.04,0.25,0.02,0.49-0.04,0.72
				c-0.06,0.23-0.14,0.48-0.23,0.75C235.83,261.45,235.75,261.74,235.67,262.07z"/>
			<path class="st20" d="M271.1,261.43c-0.88,1.4-1.81,2.64-2.8,3.73c-0.87,1.01-1.9,1.94-3.08,2.77c-1.18,0.84-2.46,1.35-3.82,1.55
				c-2.61,0.38-4.92,0.02-6.91-1.05c-2-1.08-3.34-2.9-4.02-5.47c-1.02,1.73-2.17,3.26-3.43,4.59c-1.1,1.17-2.37,2.28-3.81,3.31
				c-1.44,1.03-3.06,1.68-4.86,1.94c-1.24,0.18-2.47,0.12-3.69-0.18c-1.22-0.3-2.31-0.83-3.27-1.58c-0.97-0.75-1.78-1.68-2.45-2.79
				c-0.67-1.11-1.1-2.38-1.31-3.81c-0.48-3.36-0.32-6.78,0.48-10.25c0.8-3.48,2.04-6.69,3.71-9.62c1.67-2.94,3.67-5.4,5.98-7.38
				c2.32-1.98,4.75-3.16,7.3-3.52c1.87-0.27,3.48-0.26,4.86,0.02c1.37,0.28,2.5,0.64,3.39,1.08c1.03,0.55,1.88,1.16,2.55,1.82
				c0.68-0.1,1.43-0.12,2.23-0.08c0.8,0.04,1.55,0.19,2.25,0.44c0.7,0.25,1.31,0.62,1.83,1.12c0.51,0.5,0.83,1.15,0.95,1.96
				c0.1,0.68-0.02,1.84-0.36,3.48c-0.34,1.64-0.71,3.45-1.12,5.44c-0.41,2-0.75,4.04-1.02,6.14c-0.27,2.1-0.29,3.93-0.07,5.48
				c0.11,0.75,0.43,1.33,0.97,1.76c0.54,0.43,1.21,0.59,2.02,0.47c0.5-0.07,0.97-0.3,1.43-0.68c0.45-0.38,0.9-0.8,1.34-1.24
				c0.5-0.52,0.95-1.12,1.36-1.81c0.2-0.35,0.44-0.68,0.71-1.01c0.27-0.32,0.62-0.52,1.06-0.58c0.5-0.07,1,0.08,1.49,0.45
				c0.5,0.37,0.78,0.81,0.85,1.31c0.05,0.37-0.07,0.84-0.37,1.39C271.31,260.89,271.19,261.16,271.1,261.43z M251.79,242.31
				c-0.2-1.37-0.67-2.33-1.42-2.89c-0.75-0.56-1.59-0.77-2.52-0.64c-1.37,0.2-2.67,1.11-3.89,2.75c-1.23,1.64-2.26,3.58-3.11,5.83
				c-0.85,2.25-1.48,4.64-1.87,7.17c-0.4,2.53-0.46,4.76-0.18,6.69c0.4,2.8,1.5,4.07,3.31,3.81c1.12-0.16,2.3-1.09,3.55-2.79
				c1.25-1.7,2.37-3.73,3.36-6.1c0.99-2.36,1.77-4.81,2.33-7.33C251.9,246.27,252.05,244.11,251.79,242.31z"/>
			<path class="st20" d="M301.01,263.33c-1.87,0.27-3.7,0.21-5.5-0.16c-1.8-0.37-3.44-1.08-4.92-2.1c-1.48-1.03-2.73-2.35-3.76-3.98
				c-1.03-1.63-1.7-3.53-2.01-5.71c-0.45-3.11-0.58-6.61-0.41-10.51c0.17-3.89,0.63-7.85,1.39-11.86c0.76-4.01,1.73-7.94,2.92-11.8
				c1.19-3.85,2.61-7.34,4.26-10.46c1.65-3.12,3.45-5.68,5.42-7.68c1.97-2,4.07-3.15,6.31-3.48c1.06-0.15,2.09-0.05,3.09,0.32
				c1,0.36,1.92,0.87,2.74,1.51c0.82,0.64,1.52,1.39,2.08,2.22c0.56,0.84,0.91,1.66,1.02,2.47c0.19,1.31,0.07,3.02-0.36,5.14
				c-0.43,2.12-1.06,4.44-1.91,6.94c-0.85,2.5-1.88,5.11-3.11,7.83c-1.23,2.72-2.53,5.36-3.9,7.94c-1.38,2.58-2.79,5-4.24,7.27
				c-1.45,2.27-2.86,4.17-4.23,5.7c-0.02,0.76-0.03,1.56-0.04,2.39c-0.03,0.7-0.01,1.48,0.05,2.33c0.06,0.85,0.15,1.68,0.26,2.49
				c0.31,2.18,1.08,3.88,2.3,5.1c1.22,1.22,2.8,1.69,4.73,1.42c1.24-0.18,2.41-0.76,3.51-1.74c1.1-0.98,2.04-2.07,2.82-3.26
				c0.96-1.28,1.79-2.76,2.5-4.45c0.03-0.2,0.16-0.43,0.37-0.72c0.11-0.14,0.27-0.31,0.5-0.5c0.23-0.19,0.49-0.31,0.81-0.35
				c0.5-0.07,0.97,0.05,1.43,0.37c0.46,0.31,0.72,0.72,0.79,1.22c0.04,0.25,0.02,0.49-0.04,0.72c-0.06,0.23-0.14,0.48-0.23,0.75
				c-0.09,0.27-0.17,0.56-0.25,0.89c-1.06,2.37-2.3,4.52-3.74,6.44c-1.23,1.64-2.73,3.19-4.52,4.65
				C305.35,262.1,303.31,263,301.01,263.33z M308.95,202.69c-0.12-0.87-0.56-1.25-1.31-1.15c-0.87,0.13-1.87,1.25-2.99,3.38
				c-1.12,2.13-2.22,4.86-3.3,8.19c-1.08,3.33-2.08,7.03-3.02,11.1c-0.94,4.07-1.59,8.13-1.96,12.18c0.93-1.02,1.92-2.43,2.96-4.23
				c1.04-1.8,2.04-3.8,2.99-6c0.95-2.2,1.86-4.47,2.73-6.82c0.87-2.35,1.61-4.59,2.22-6.74c0.61-2.15,1.08-4.11,1.4-5.87
				C309,204.97,309.09,203.63,308.95,202.69z"/>
			<path class="st20" d="M351.8,248.91c-0.88,1.4-1.81,2.64-2.8,3.73c-0.87,1.01-1.9,1.94-3.08,2.77c-1.18,0.84-2.46,1.35-3.82,1.55
				c-2.61,0.38-4.92,0.02-6.91-1.05c-2-1.08-3.34-2.9-4.02-5.47c-1.02,1.73-2.17,3.26-3.43,4.59c-1.1,1.17-2.37,2.28-3.81,3.31
				c-1.44,1.03-3.06,1.68-4.86,1.94c-1.24,0.18-2.47,0.12-3.69-0.18c-1.22-0.3-2.31-0.83-3.27-1.58c-0.97-0.75-1.78-1.68-2.45-2.79
				c-0.67-1.11-1.1-2.38-1.31-3.81c-0.48-3.36-0.32-6.78,0.48-10.25c0.8-3.48,2.04-6.69,3.71-9.62c1.67-2.94,3.67-5.4,5.98-7.38
				c2.32-1.98,4.75-3.16,7.3-3.52c1.87-0.27,3.48-0.26,4.86,0.02c1.37,0.28,2.5,0.64,3.39,1.08c1.03,0.55,1.88,1.16,2.55,1.82
				c0.68-0.1,1.43-0.12,2.23-0.08c0.8,0.04,1.55,0.19,2.25,0.44c0.7,0.25,1.31,0.62,1.83,1.12c0.51,0.5,0.83,1.15,0.95,1.96
				c0.1,0.68-0.02,1.84-0.36,3.48c-0.34,1.64-0.71,3.45-1.12,5.44c-0.41,2-0.75,4.04-1.02,6.14c-0.27,2.1-0.29,3.93-0.07,5.48
				c0.11,0.75,0.43,1.33,0.97,1.76c0.54,0.43,1.21,0.59,2.02,0.47c0.5-0.07,0.97-0.3,1.43-0.68c0.45-0.38,0.9-0.8,1.34-1.24
				c0.5-0.52,0.95-1.12,1.36-1.81c0.2-0.35,0.44-0.68,0.71-1.01c0.27-0.32,0.62-0.52,1.06-0.58c0.5-0.07,1,0.08,1.49,0.45
				c0.5,0.37,0.78,0.81,0.85,1.31c0.05,0.37-0.07,0.84-0.37,1.39C352,248.37,351.88,248.65,351.8,248.91z M332.48,229.79
				c-0.2-1.37-0.67-2.33-1.42-2.89c-0.75-0.56-1.59-0.77-2.52-0.64c-1.37,0.2-2.67,1.11-3.89,2.75c-1.23,1.64-2.26,3.58-3.11,5.83
				c-0.85,2.25-1.48,4.64-1.87,7.17c-0.4,2.53-0.46,4.76-0.18,6.69c0.4,2.8,1.5,4.07,3.31,3.81c1.12-0.16,2.3-1.09,3.55-2.79
				c1.25-1.7,2.37-3.73,3.36-6.1c0.99-2.36,1.77-4.81,2.33-7.33C332.59,233.76,332.74,231.59,332.48,229.79z"/>
		</g>
		<g>
			<path class="st20" d="M178.42,356.14c3.22-3.79,6.52-8.31,9.91-13.56c3.38-5.25,6.41-10.76,9.09-16.54
				c2.68-5.78,4.74-11.6,6.19-17.46c1.45-5.86,1.81-11.29,1.1-16.28c-0.18-1.23-0.48-2.28-0.89-3.14c-0.42-0.86-0.66-1.51-0.72-1.95
				c-0.14-0.94,0.23-1.47,1.1-1.6c1.01-0.15,2.32-0.04,3.92,0.32c1.6,0.36,3.16,0.93,4.68,1.71c1.51,0.78,2.86,1.75,4.02,2.91
				c1.16,1.16,1.86,2.5,2.07,4.02c0.45,3.11,0.2,6.56-0.73,10.36c-0.93,3.79-2.34,7.78-4.21,11.96c-1.87,4.19-4.1,8.46-6.69,12.82
				s-5.33,8.65-8.23,12.87c-2.9,4.22-5.87,8.27-8.89,12.14c-3.03,3.87-5.86,7.4-8.51,10.59c-1.26,1.51-2.44,2.83-3.53,3.94
				c-1.1,1.12-2.15,1.75-3.16,1.89c-0.72,0.1-1.65-0.15-2.77-0.77c-1.12-0.61-2.22-1.45-3.3-2.52c-1.08-1.06-2.04-2.24-2.89-3.52
				c-0.85-1.28-1.37-2.57-1.56-3.88c-0.36-2.53-0.41-5.44-0.15-8.73c0.27-3.29,0.68-6.71,1.24-10.26c0.56-3.55,1.2-7.19,1.92-10.91
				c0.72-3.72,1.37-7.32,1.94-10.81c0.57-3.48,1.01-6.74,1.31-9.77c0.3-3.04,0.29-5.67-0.03-7.92c-0.19-1.3-0.71-2.39-1.58-3.26
				c-0.86-0.87-2.13-1.19-3.79-0.95c-2.75,0.4-5.45,1.69-8.09,3.88c-2.64,2.19-4.96,4.8-6.97,7.82c-2,3.02-3.54,6.2-4.62,9.53
				c-1.07,3.33-1.42,6.3-1.05,8.9c0.3,2.1,0.82,3.8,1.56,5.09c0.74,1.3,1.52,2.37,2.34,3.21c0.82,0.84,1.54,1.48,2.16,1.91
				c0.62,0.43,0.95,0.82,1,1.19c0.2,1.38-0.46,2.17-1.98,2.39c-1.45,0.21-3.27,0.03-5.45-0.55s-4.35-1.44-6.47-2.62
				c-2.13-1.17-4.02-2.64-5.67-4.39c-1.66-1.76-2.64-3.72-2.95-5.89c-0.36-2.53-0.04-5.18,0.96-7.95c1-2.77,2.5-5.47,4.48-8.12
				c1.98-2.65,4.31-5.18,7-7.6c2.68-2.42,5.51-4.58,8.49-6.48c2.98-1.9,5.96-3.5,8.95-4.78c2.99-1.28,5.83-2.11,8.51-2.5
				c2.17-0.31,4.21-0.27,6.11,0.12c1.9,0.39,3.58,1.04,5.04,1.93c1.46,0.9,2.66,2.06,3.6,3.47c0.94,1.42,1.54,2.99,1.79,4.73
				c0.36,2.53,0.44,5.38,0.23,8.55c-0.21,3.17-0.57,6.47-1.07,9.91c-0.5,3.44-1.09,6.92-1.77,10.45c-0.68,3.53-1.28,6.91-1.81,10.12
				c-0.54,3.22-0.94,6.21-1.2,8.98C178.15,351.93,178.15,354.26,178.42,356.14z"/>
			<path class="st20" d="M230.5,351.54c0.18,1.23,0.63,2.18,1.35,2.85c0.72,0.67,1.63,0.93,2.71,0.77c1.45-0.21,2.81-0.88,4.09-2.03
				c1.28-1.14,2.37-2.41,3.28-3.8c1.12-1.49,2.09-3.22,2.91-5.18c0.04-0.23,0.19-0.51,0.43-0.84c0.12-0.16,0.32-0.36,0.58-0.58
				c0.26-0.22,0.58-0.36,0.94-0.41c0.58-0.08,1.13,0.06,1.67,0.43c0.53,0.37,0.84,0.84,0.92,1.42c0.04,0.29,0.03,0.57-0.05,0.84
				c-0.07,0.27-0.16,0.56-0.26,0.87c-0.1,0.31-0.2,0.66-0.29,1.04c-1.23,2.76-2.68,5.26-4.35,7.5c-1.43,1.9-3.18,3.71-5.26,5.41
				c-2.08,1.7-4.46,2.75-7.14,3.13c-4.12,0.59-7.61-0.03-10.46-1.88c-2.85-1.84-4.53-4.54-5.04-8.09c-0.28-1.95-0.29-4.35-0.04-7.2
				c0.26-2.84,0.62-5.74,1.08-8.69c0.46-2.95,1-5.76,1.61-8.43c0.61-2.67,1.14-4.82,1.57-6.43c0.21-0.62,0.53-1.17,0.98-1.64
				c0.45-0.47,1-0.75,1.65-0.85c0.8-0.11,1.74,0.01,2.82,0.37c1.09,0.36,2.11,0.8,3.07,1.33c0.96,0.53,1.78,1.09,2.46,1.7
				c0.68,0.61,1.05,1.12,1.11,1.56c0.24,1.67,0.17,3.5-0.2,5.51c-0.38,2.01-0.79,4.16-1.24,6.44c-0.45,2.28-0.81,4.68-1.07,7.19
				C230.08,346.37,230.13,348.93,230.5,351.54z M238.64,297.07c0.21,1.45,0.17,2.88-0.11,4.28c-0.28,1.41-0.76,2.7-1.44,3.86
				c-0.68,1.17-1.5,2.14-2.46,2.9c-0.96,0.77-2.02,1.23-3.18,1.4c-1.59,0.23-3.05-0.12-4.36-1.04c-1.31-0.92-2.11-2.36-2.39-4.31
				c-0.2-1.37-0.14-2.75,0.18-4.13c0.32-1.38,0.82-2.65,1.5-3.82c0.68-1.17,1.52-2.14,2.52-2.91c1-0.77,2.11-1.25,3.34-1.42
				c1.59-0.23,2.99,0.12,4.2,1.06C237.64,293.88,238.38,295.26,238.64,297.07z"/>
			<path class="st20" d="M290.55,354.54c-2.03,0.29-3.93,0.18-5.7-0.34s-3.33-1.24-4.69-2.15c-1.35-0.91-2.46-1.94-3.32-3.07
				c-0.87-1.13-1.4-2.16-1.61-3.09c-1.45,2.28-3.04,4.31-4.77,6.12c-1.47,1.62-3.19,3.12-5.17,4.51c-1.98,1.39-4.09,2.25-6.34,2.57
				c-1.52,0.22-3.07,0.11-4.65-0.33c-1.58-0.44-3.03-1.15-4.35-2.14c-1.32-0.99-2.47-2.27-3.43-3.83c-0.96-1.56-1.58-3.32-1.87-5.27
				c-0.63-4.41-0.35-8.61,0.85-12.59c1.2-3.98,2.92-7.47,5.14-10.49c2.23-3.02,4.73-5.48,7.53-7.4c2.79-1.91,5.45-3.05,7.99-3.42
				c1.01-0.15,1.97-0.19,2.86-0.13c0.9,0.06,1.65,0.15,2.26,0.29c0.76,0.19,1.42,0.39,1.97,0.6c0.6-4.59,1.46-9.11,2.6-13.56
				c1.13-4.45,2.5-8.45,4.09-12c1.59-3.55,3.41-6.47,5.44-8.76c2.04-2.29,4.32-3.61,6.85-3.98c1.09-0.16,2.23-0.02,3.44,0.39
				c1.21,0.42,2.33,1.03,3.37,1.84c1.04,0.81,1.94,1.79,2.69,2.94c0.76,1.15,1.22,2.34,1.4,3.57c0.19,1.3,0.08,2.98-0.33,5.03
				c-0.41,2.05-1.01,4.3-1.8,6.74c-0.8,2.44-1.72,4.99-2.78,7.66c-1.06,2.66-2.17,5.3-3.35,7.91c-2.67,6.07-5.8,12.58-9.38,19.52
				c-0.01,0.96,0.01,1.9,0.07,2.81c0.06,0.92,0.15,1.81,0.27,2.68c0.44,3.04,1.27,5.47,2.49,7.29c1.22,1.82,2.85,2.58,4.87,2.29
				c1.45-0.21,2.79-0.88,4.03-2.02c1.24-1.14,2.31-2.4,3.22-3.79c1.12-1.49,2.09-3.22,2.91-5.18c0.04-0.23,0.19-0.51,0.43-0.84
				c0.12-0.16,0.32-0.36,0.58-0.58c0.26-0.22,0.58-0.36,0.94-0.41c0.58-0.08,1.13,0.06,1.67,0.43c0.53,0.37,0.84,0.84,0.92,1.42
				c0.04,0.29,0.03,0.57-0.05,0.84c-0.07,0.27-0.16,0.56-0.26,0.87c-0.1,0.31-0.2,0.66-0.29,1.04c-1.23,2.76-2.68,5.26-4.35,7.5
				c-1.43,1.9-3.18,3.71-5.26,5.41C295.61,353.11,293.23,354.16,290.55,354.54z M272.72,320.65c-0.33-0.25-0.66-0.49-0.99-0.74
				c-0.32-0.18-0.68-0.33-1.06-0.46c-0.39-0.13-0.8-0.16-1.23-0.1c-1.74,0.25-3.37,1.33-4.91,3.25c-1.54,1.92-2.83,4.19-3.9,6.82
				c-1.06,2.63-1.83,5.38-2.3,8.25c-0.47,2.88-0.55,5.44-0.23,7.68c0.28,1.95,0.86,3.42,1.74,4.4c0.88,0.98,1.93,1.38,3.17,1.21
				c1.16-0.17,2.36-0.8,3.61-1.9c1.24-1.1,2.4-2.32,3.46-3.66c1.19-1.5,2.38-3.22,3.58-5.17c-0.4-3.27-0.66-6.5-0.78-9.69
				C272.74,327.35,272.69,324.05,272.72,320.65z M284.99,323.54c2.44-5.67,4.58-11.07,6.43-16.21c0.79-2.18,1.56-4.42,2.31-6.7
				c0.74-2.28,1.37-4.46,1.89-6.53c0.52-2.07,0.91-3.97,1.17-5.71c0.27-1.74,0.31-3.22,0.14-4.45c-0.18-1.23-0.77-1.77-1.79-1.63
				c-0.94,0.14-1.94,1.44-2.98,3.92c-1.05,2.48-2.07,5.67-3.06,9.58c-0.99,3.91-1.86,8.28-2.6,13.12
				C285.75,313.75,285.24,318.63,284.99,323.54z"/>
			<path class="st20" d="M358.88,331.1c-1.23,2.76-2.68,5.26-4.35,7.5c-1.43,1.9-3.18,3.71-5.26,5.41c-2.08,1.7-4.46,2.75-7.14,3.13
				c-3.04,0.44-5.72,0.03-8.04-1.23c-2.32-1.25-3.88-3.38-4.68-6.36c-1.19,2.02-2.52,3.8-4,5.34c-1.28,1.37-2.76,2.65-4.43,3.85
				c-1.67,1.2-3.56,1.95-5.66,2.25c-1.45,0.21-2.88,0.14-4.3-0.21c-1.42-0.35-2.69-0.96-3.81-1.84c-1.12-0.87-2.07-1.95-2.85-3.25
				c-0.78-1.29-1.28-2.77-1.52-4.44c-0.56-3.91-0.37-7.89,0.56-11.94c0.93-4.05,2.37-7.78,4.32-11.2c1.95-3.42,4.27-6.28,6.97-8.59
				c2.7-2.31,5.53-3.68,8.5-4.1c2.17-0.31,4.06-0.31,5.65,0.02s2.91,0.75,3.95,1.26c1.2,0.64,2.19,1.35,2.96,2.12
				c0.79-0.11,1.66-0.14,2.59-0.09c0.93,0.05,1.8,0.22,2.62,0.51c0.82,0.29,1.53,0.72,2.13,1.3c0.6,0.58,0.97,1.34,1.1,2.28
				c0.11,0.8-0.02,2.15-0.42,4.05c-0.39,1.9-0.83,4.02-1.31,6.34c-0.48,2.32-0.88,4.71-1.19,7.15c-0.31,2.45-0.34,4.58-0.08,6.38
				c0.12,0.87,0.5,1.55,1.13,2.05c0.63,0.5,1.41,0.68,2.35,0.55c1.45-0.21,2.81-0.88,4.09-2.03c1.28-1.14,2.37-2.41,3.28-3.8
				c1.12-1.49,2.09-3.22,2.91-5.18c0.04-0.23,0.19-0.51,0.43-0.84c0.12-0.16,0.32-0.36,0.58-0.58c0.26-0.22,0.58-0.36,0.94-0.41
				c0.58-0.08,1.13,0.06,1.67,0.43c0.53,0.37,0.84,0.84,0.92,1.42c0.04,0.29,0.03,0.57-0.05,0.84c-0.07,0.27-0.16,0.56-0.26,0.87
				C359.07,330.37,358.97,330.71,358.88,331.1z M330.93,315.5c-0.23-1.59-0.78-2.71-1.65-3.37c-0.87-0.65-1.85-0.9-2.93-0.74
				c-1.59,0.23-3.1,1.3-4.53,3.2c-1.43,1.9-2.63,4.17-3.62,6.78c-0.99,2.62-1.72,5.4-2.18,8.35c-0.46,2.95-0.53,5.54-0.21,7.79
				c0.47,3.26,1.75,4.74,3.85,4.43c1.3-0.19,2.68-1.27,4.13-3.25c1.45-1.98,2.76-4.35,3.91-7.1c1.16-2.75,2.06-5.6,2.71-8.53
				C331.06,320.12,331.23,317.6,330.93,315.5z"/>
		</g>
	</g>
	<path class="st20" d="M265.33,130.69c-0.23-0.19-0.52-0.03-0.74,0.08c-0.18,0.09-0.35,0.19-0.52,0.29
		c-0.12,0.06-0.25,0.12-0.37,0.19c-0.31,0.15-0.61,0.3-0.92,0.46c-0.62,0.31-1.23,0.62-1.85,0.94c-1.22,0.62-2.43,1.24-3.65,1.86
		c-0.34,0.17-0.68,0.35-1.02,0.52c-0.18,0.09-0.35,0.18-0.52,0.28c-0.01,0.01-0.02,0.01-0.04,0.02c-0.23,0.09-0.46,0.17-0.69,0.26
		c-0.48,0.2-0.98,0.37-1.47,0.54c-0.54,0.18-1.09,0.34-1.64,0.5c-0.26-0.02-0.51,0.02-0.77,0.04c-0.3,0.02-0.6,0.03-0.9,0.04
		c-0.59,0.01-1.17-0.01-1.76-0.01c-1.17,0-2.39,0.12-3.45,0.67c-0.94,0.48-1.68,1.25-2.3,2.09c-0.62,0.85-1.19,1.79-1.51,2.8
		c-0.18,0.58-0.31,1.22-0.17,1.82c0.07,0.3,0.23,0.58,0.41,0.83c0.02,0.03,0.05,0.07,0.08,0.1c0,0,0,0.01,0,0.01
		c0.03,0.1,0.04,0.2,0.03,0.3c-0.02,0.21-0.1,0.41-0.08,0.63c0.01,0.22,0.09,0.42,0.21,0.6c0.01,0.02,0.03,0.04,0.04,0.06
		c0,0.01-0.01,0.02-0.01,0.04c-0.04,0.1-0.1,0.2-0.14,0.3c-0.08,0.22-0.05,0.44,0.04,0.65c0.03,0.08,0.07,0.16,0.11,0.24
		c0.01,0.11,0.03,0.23,0.04,0.34c0.01,0.22,0,0.45-0.03,0.67c-0.06,0.4-0.22,0.78-0.41,1.14c-0.19,0.37-0.41,0.71-0.62,1.07
		c-0.09,0.16-0.18,0.32-0.26,0.49c-0.22-0.15-0.45-0.3-0.67-0.44l-5.04-3.24c-2.21-1.42-4.42-2.86-6.64-4.27
		c-2.06-1.31-4.16-2.56-6.44-3.43c-2.13-0.81-4.43-1.29-6.72-1.11c-1.11,0.09-2.39,0.28-3.11,1.23c-0.3,0.39-0.47,0.89-0.38,1.39
		c0.08,0.44,0.39,0.86,0.79,1.06c0.09,0.04,0.18,0.07,0.27,0.09c-0.04,0.17,0.01,0.37,0.04,0.54c0.03,0.21,0.08,0.43,0.13,0.64
		c0.1,0.43,0.25,0.85,0.45,1.23c0.34,0.63,0.88,1.17,1.55,1.43c0.17,0.07,0.35,0.12,0.54,0.14c0.05,0.01,0.11,0.02,0.17,0.02
		c-0.01,0.02-0.02,0.03-0.03,0.05c-0.1,0.15-0.15,0.33-0.18,0.5c-0.06,0.4,0.07,0.77,0.32,1.08c0.26,0.31,0.62,0.52,0.96,0.72
		c0.18,0.11,0.38,0.2,0.59,0.26c0.21,0.06,0.44,0.07,0.66,0.07c0.06,0,0.12,0,0.18,0.01c0.05,0.16,0.18,0.3,0.3,0.42
		c0.15,0.14,0.33,0.25,0.53,0.32c0.1,0.03,0.2,0.06,0.3,0.07c-0.01,0.45,0.11,0.94,0.36,1.3c0.09,0.13,0.19,0.25,0.31,0.35
		c-0.02,0.1-0.02,0.21-0.03,0.3c-0.03,0.16-0.02,0.33,0,0.49c0.03,0.34,0.11,0.67,0.25,0.98c0.02,0.05,0.05,0.1,0.08,0.16
		c-0.07-0.01-0.13-0.01-0.2-0.02c-0.36-0.03-0.73-0.07-1.09-0.1c-0.73-0.07-1.46-0.13-2.18-0.19c-1.46-0.12-2.91-0.24-4.37-0.33
		c-2.9-0.18-5.8-0.27-8.7-0.19c-0.81,0.02-1.61,0.06-2.42,0.11c-0.41,0.02-0.82,0.06-1.23,0.1c-0.38,0.04-0.77,0.06-1.13,0.16
		c-0.03-0.01-0.06,0-0.1,0.02c-0.31,0.23,0.16,0.57,0.34,0.71c0.25,0.19,0.54,0.32,0.84,0.41c0.53,0.16,1.1,0.22,1.65,0.26
		c0.06,0.12,0.16,0.23,0.24,0.32c0.12,0.14,0.26,0.26,0.4,0.38c0.29,0.23,0.6,0.43,0.93,0.59c0.69,0.31,1.41,0.41,2.15,0.38
		c0.09,0.14,0.24,0.25,0.36,0.34c0.2,0.16,0.43,0.3,0.66,0.42c0.45,0.24,0.93,0.42,1.41,0.56c1.05,0.29,2.15,0.35,3.24,0.31
		c0.05,0.01,0.09,0.03,0.14,0.04c0.19,0.07,0.37,0.16,0.53,0.28c0.33,0.24,0.64,0.51,1.04,0.62c0.39,0.1,0.79,0.07,1.18,0
		c0,0,0,0,0,0c0.04,0.01,0.07,0.03,0.1,0.04c0.14,0.07,0.26,0.16,0.38,0.26c0.25,0.2,0.51,0.38,0.82,0.47
		c0.29,0.08,0.59,0.09,0.89,0.07c0.01,0,0.02,0.01,0.02,0.01c0.14,0.07,0.28,0.16,0.41,0.26c0.28,0.21,0.55,0.43,0.86,0.58
		c0.35,0.17,0.74,0.24,1.14,0.23c0.2-0.01,0.43-0.01,0.61-0.08c0.04-0.01,0.07-0.03,0.11-0.04c0.08,0.06,0.16,0.11,0.24,0.17
		c0.14,0.1,0.28,0.19,0.43,0.28c0.3,0.2,0.64,0.33,1,0.39c0.38,0.06,0.76,0.06,1.14,0.01c0.18-0.03,0.36-0.06,0.54-0.11
		c0.06,0.14,0.18,0.27,0.27,0.38c0.12,0.15,0.24,0.29,0.36,0.43c0.24,0.28,0.51,0.55,0.84,0.72c0.64,0.34,1.39,0.32,2.08,0.15
		c0.21-0.05,0.42-0.12,0.63-0.2c-0.06,0.35-0.03,0.74,0.02,1.08c0.07,0.4,0.23,0.82,0.53,1.1c0.31,0.28,0.7,0.38,1.11,0.42
		c0.2,0.02,0.41,0.02,0.62,0.03c0.09,0,0.18,0,0.26-0.01c-0.01,0.2,0.08,0.43,0.14,0.59c0.12,0.29,0.28,0.55,0.48,0.78
		c0.18,0.21,0.39,0.4,0.62,0.55c-0.15,0.14-0.29,0.29-0.43,0.45c-0.18,0.2-0.36,0.39-0.54,0.58c-0.37,0.39-0.76,0.77-1.16,1.13
		c-0.8,0.72-1.63,1.43-2.53,2.02c-0.45,0.3-0.9,0.57-1.37,0.84c-0.49,0.28-0.96,0.56-1.38,0.93c-0.42,0.37-0.81,0.79-1.25,1.13
		c-0.44,0.33-0.9,0.62-1.35,0.95c-0.44,0.32-0.85,0.69-1.16,1.14c-0.07,0.1-0.14,0.22-0.21,0.35c-0.45,0.24-0.86,0.53-1.28,0.82
		c-0.39,0.26-0.77,0.53-1.14,0.83c-0.32,0.26-0.64,0.54-0.92,0.85c-0.2,0.16-0.42,0.3-0.63,0.45c-0.34,0.23-0.68,0.45-1.04,0.66
		c-0.35,0.2-0.7,0.4-1.06,0.58c-0.25,0.12-0.7,0.3-0.64,0.66c0.02,0.14,0.12,0.22,0.23,0.27c-0.17,0.14-0.29,0.34-0.32,0.56
		c-0.04,0.35,0.2,0.63,0.54,0.69c0.37,0.06,0.76-0.11,1.1-0.24c0.04-0.02,0.08-0.04,0.12-0.05c0.06,0.07,0.15,0.12,0.23,0.14
		c0.2,0.06,0.42,0.03,0.62-0.02c0.24-0.06,0.48-0.16,0.71-0.25c0.27-0.1,0.54-0.21,0.81-0.32c0.84-0.34,1.67-0.71,2.48-1.12
		c0.35-0.09,0.69-0.21,1.03-0.33c0.49-0.17,0.97-0.36,1.45-0.56c0.31-0.13,0.62-0.27,0.93-0.4c0,0-0.01,0-0.01,0.01
		c-0.52,0.43-1,0.9-1.45,1.41c-0.82,0.93-1.51,2-1.92,3.18c-0.11,0.32-0.22,0.67-0.26,1.01c-0.02,0.19,0.02,0.39,0.18,0.5
		c0.05,0.03,0.1,0.05,0.16,0.06c0.03,0.08,0.09,0.15,0.15,0.2c0.14,0.11,0.34,0.13,0.51,0.11c0.19-0.02,0.41-0.06,0.57-0.18
		c0.03-0.03,0.07-0.05,0.1-0.08c0.03-0.01,0.06-0.03,0.09-0.04c0.41-0.16,0.8-0.35,1.2-0.55c0.78-0.4,1.51-0.87,2.21-1.39
		c1.36-1,2.58-2.16,3.69-3.42c-0.51,0.86-1.01,1.72-1.5,2.59c-0.25,0.44-0.5,0.89-0.74,1.33c-0.22,0.4-0.48,0.8-0.62,1.24
		c-0.14,0.44-0.14,0.92-0.21,1.37c-0.04,0.21-0.1,0.41-0.18,0.61c-0.08,0.19-0.16,0.37-0.21,0.57c-0.05,0.21-0.06,0.43,0.03,0.63
		c0.11,0.24,0.37,0.27,0.6,0.22c0.15-0.03,0.28-0.03,0.43-0.02c0.14,0.01,0.28,0.02,0.42,0c0.08-0.01,0.15-0.03,0.23-0.05
		c0.14-0.02,0.27-0.08,0.39-0.17c0.16-0.12,0.29-0.25,0.42-0.41c0.27-0.34,0.51-0.71,0.75-1.07c0.19-0.28,0.38-0.55,0.57-0.83
		c-0.12,0.38-0.2,0.78-0.22,1.18c-0.01,0.29,0.04,0.63,0.23,0.86c0.24,0.28,0.62,0.27,0.92,0.09c0.32-0.18,0.59-0.48,0.85-0.73
		c0.26-0.26,0.5-0.53,0.74-0.81c0.97-1.18,1.74-2.51,2.44-3.86c0.73-1.39,1.36-2.84,1.79-4.35c0.15-0.54,0.29-1.08,0.41-1.63
		c0.04-0.08,0.08-0.15,0.15-0.2c0.14-0.12,0.3-0.09,0.45-0.15c0.16-0.06,0.29-0.19,0.37-0.34c0.08-0.15,0.11-0.32,0.13-0.49
		c0.02-0.17,0.01-0.36,0.07-0.52c0.06-0.13,0.23-0.17,0.37-0.23c0.44,0.04,0.89,0.04,1.33,0.09c0.26,0.03,0.52,0.08,0.77,0.14
		c0.13,0.03,0.25,0.07,0.37,0.1c0.09,0.02,0.19,0.04,0.28,0.06c0.01,0.1,0.07,0.19,0.14,0.27c0.17,0.18,0.4,0.14,0.61,0.08
		c0.19-0.05,0.36-0.04,0.55,0c0.2,0.04,0.41,0.08,0.62,0.04c0.37-0.07,0.62-0.38,0.83-0.68c0.02-0.03,0.05-0.06,0.07-0.09
		c0.08-0.1,0.16-0.21,0.24-0.31c0.15-0.19,0.29-0.39,0.44-0.58c0.14-0.18,0.28-0.35,0.46-0.49c0.18-0.15,0.38-0.27,0.56-0.41
		c0.36-0.27,0.65-0.58,0.91-0.95c0.12-0.17,0.22-0.37,0.31-0.56c0.04-0.09,0.07-0.18,0.11-0.26c0.12-0.08,0.24-0.18,0.35-0.27
		c0.33-0.3,0.6-0.67,0.84-1.04c0.51-0.8,0.96-1.66,1.38-2.51c0.43-0.88,0.83-1.77,1.19-2.68c0.36-0.9,0.7-1.83,0.97-2.76
		c0.14-0.51,0.26-1.04,0.28-1.57c0.01-0.38-0.02-0.8-0.17-1.16c0.02-0.05,0.03-0.1,0.04-0.15c0.05-0.21,0.1-0.42,0.14-0.63
		c0.09-0.42,0.16-0.85,0.22-1.28c0.11-0.86,0.17-1.73,0.14-2.6c-0.01-0.24-0.02-0.48-0.04-0.72c-0.02-0.2-0.04-0.4-0.09-0.59
		c0.1-0.14,0.18-0.31,0.25-0.46c0.19-0.39,0.33-0.8,0.43-1.23c0.19-0.84,0.3-1.69,0.44-2.54c0.28-1.67,0.54-3.34,0.94-4.99
		c0.11-0.45,0.23-0.9,0.36-1.35c0.04-0.12,0.08-0.24,0.12-0.36c0.1-0.24,0.2-0.48,0.29-0.72c0.35-0.89,0.65-1.81,0.99-2.7
		c0.17-0.45,0.36-0.9,0.59-1.32c0.2-0.39,0.45-0.74,0.73-1.08c0.3-0.38,0.65-0.72,1.03-1.02c0.2-0.16,0.45-0.32,0.64-0.53
		c0.54-0.4,1.07-0.79,1.63-1.16c0.58-0.38,1.18-0.7,1.78-1.03c0.62-0.33,1.24-0.67,1.86-1c0.32-0.17,0.64-0.34,0.96-0.52
		c0.04-0.02,0.07-0.03,0.11-0.05c0.47-0.2,0.97-0.36,1.4-0.64c0.18-0.12,0.39-0.27,0.5-0.47
		C265.52,131.09,265.51,130.84,265.33,130.69z"/>
</g>
</svg>
